<?xml version="1.0" encoding="UTF-8" standalone="no"?>
<!-- Generator: Adobe Illustrator 22.0.1, SVG Export Plug-In . SVG Version: 6.00 Build 0)  -->

<svg
   version="1.1"
   id="Layer_1"
   x="0px"
   y="0px"
   viewBox="0 0 735 852"
   style="enable-background:new 0 0 735 852;"
   xml:space="preserve"
   sodipodi:docname="IRMaps2.svg"
   inkscape:version="1.1.1 (1:1.1+202109281949+c3084ef5ed)"
   xmlns:inkscape="http://www.inkscape.org/namespaces/inkscape"
   xmlns:sodipodi="http://sodipodi.sourceforge.net/DTD/sodipodi-0.dtd"
   xmlns="http://www.w3.org/2000/svg"
   xmlns:svg="http://www.w3.org/2000/svg"
   xmlns:rdf="http://www.w3.org/1999/02/22-rdf-syntax-ns#"
   xmlns:cc="http://creativecommons.org/ns#"
   xmlns:dc="http://purl.org/dc/elements/1.1/"><defs
   id="defs1118"><filter
     style="color-interpolation-filters:sRGB;"
     inkscape:label="Colorize"
     id="filter5467"
     x="0"
     y="0"
     width="1"
     height="1"><feComposite
       in2="SourceGraphic"
       operator="arithmetic"
       k1="0"
       k2="0"
       result="composite1"
       id="feComposite5453" /><feColorMatrix
       in="composite1"
       values="1"
       type="saturate"
       result="colormatrix1"
       id="feColorMatrix5455" /><feFlood
       flood-opacity="1"
       flood-color="rgb(255,255,255)"
       result="flood1"
       id="feFlood5457" /><feBlend
       in="flood1"
       in2="colormatrix1"
       mode="multiply"
       result="blend1"
       id="feBlend5459" /><feBlend
       in2="blend1"
       mode="screen"
       result="blend2"
       id="feBlend5461" /><feColorMatrix
       in="blend2"
       values="1"
       type="saturate"
       result="colormatrix2"
       id="feColorMatrix5463" /><feComposite
       in="colormatrix2"
       in2="SourceGraphic"
       operator="in"
       k2="1"
       result="composite2"
       id="feComposite5465" /></filter></defs><sodipodi:namedview
   id="namedview1116"
   pagecolor="#ffffff"
   bordercolor="#666666"
   borderopacity="1.0"
   inkscape:pageshadow="2"
   inkscape:pageopacity="0.0"
   inkscape:pagecheckerboard="0"
   showgrid="false"
   inkscape:zoom="0.61830347"
   inkscape:cx="345.2997"
   inkscape:cy="426.16614"
   inkscape:window-width="1848"
   inkscape:window-height="1016"
   inkscape:window-x="72"
   inkscape:window-y="27"
   inkscape:window-maximized="1"
   inkscape:current-layer="Layer_1" />
<style
   type="text/css"
   id="style2">
	.st0{fill:#DB1F26;}
	.st1{opacity:0.25;fill:url(#SVGID_1_);enable-background:new    ;}
	.st2{fill:#A51D21;}
	.st3{fill:#FFFFFF;}
	.st4{fill:none;}
	.st5{fill:#231F20;}
	.st6{fill:#E6B35A;}
</style>
<polygon
   class="st0"
   points="367.5,826.9 715.1,626.2 715.1,224.7 367.5,24 19.8,224.7 19.8,626.2 "
   id="polygon4"
   transform="translate(9.6,6.3)"
   style="fill:#feb845;fill-opacity:1" />
<title
   id="title6">rvest</title>
<linearGradient
   id="SVGID_1_"
   gradientUnits="userSpaceOnUse"
   x1="366.9651"
   y1="973.1201"
   x2="368.2551"
   y2="509.6001"
   gradientTransform="matrix(1,0,0,-1,2.4e-6,852.00001)">
	<stop
   offset="0"
   style="stop-color:#FFFFFF;stop-opacity:0.83"
   id="stop8" />
	<stop
   offset="0.56"
   style="stop-color:#FFFFFF;stop-opacity:0.37"
   id="stop10" />
	<stop
   offset="1"
   style="stop-color:#FFFFFF;stop-opacity:0"
   id="stop12" />
</linearGradient>
<path
   class="st1"
   d="m 368,341.70001 c 128.5,0 239,-57.2 288.1,-139.30001 L 367.5,35.8 v 0 L 79.600002,202 C 128.6,284.30001 239.3,341.70001 368,341.70001 Z"
   id="path15"
   style="fill:url(#SVGID_1_)" />
<path
   class="st2"
   d="M734.9,637.4V213.1l-29.3-16.9L427.8,35.8L367.5,1l-60.3,34.8L29.4,196.2L0.1,213.1v424.2l29.3,16.9  l281.3,162.4l56.9,32.8l56.9-32.8l281.3-162.4L734.9,637.4z M29.4,621.5V231l50.3-29L367.5,35.8l0,0l288.6,166.6l49.5,28.6v390.5  L367.5,816.7L29.4,621.5z"
   id="path17"
   style="fill:#fe9f45;fill-opacity:1;stroke-width:0.3;stroke-miterlimit:4;stroke-dasharray:none" />

























<path
   class="st6"
   d="M367,633.9c0.3-0.3,0.6-0.6,0.9-0.9h-0.3C367.5,633.3,367.3,633.6,367,633.9z"
   id="path69" />










































































































































































































































































































































































































































































































































<metadata
   id="metadata5391"><rdf:RDF><cc:Work
       rdf:about=""><dc:title>rvest</dc:title></cc:Work></rdf:RDF></metadata><g
   id="g360"
   transform="matrix(0.52618888,0,0,0.52618888,465.434,372.3401)"
   style="fill:#feb845;fill-opacity:1;stroke:#2e3946;stroke-width:3.914944;stroke-miterlimit:4;stroke-dasharray:none;stroke-opacity:1"><path
     d="m -64.71476,479.7208 -1,-0.1 -0.4,-0.9 0.2,-0.4 1,-0.6 0.6,0.2 0.1,1.4 z m -323.5,-250.2 0.3,0.1 v 0.5 l 0.1,1.7 -1.4,-0.1 -0.4,0.5 -1,-0.5 -0.1,-1.2 0.2,-0.8 0.9,-0.2 z"
     id="IRN99"
     name=""
     style="fill:#feb845;fill-opacity:1;stroke:#2e3946;stroke-width:3.914944;stroke-miterlimit:4;stroke-dasharray:none;stroke-opacity:1" /><path
     d="m -271.61476,189.6208 0.3,4.1 2.9,7.4 5.6,5.9 7.2,5.2 1.1,1.1 1.5,7.5 v 2.8 l -0.3,0.6 -1.3,1.4 -2.5,1.5 -2.9,0.8 -5.5,-1.5 -1.9,-1.1 -1.2,-1.5 -1.3,-0.3 -5.9,-2.9 -4.2,-1.1 -0.8,1 0.9,5 1.6,4.6 0.1,1.4 -0.7,1.2 0.4,1.3 1.2,2.2 v 3.1 l -1.1,2.3 -13.8,8.1 -2.2,0.3 -8.7,-0.5 -5.2,1.3 v 0.1 l -0.9,-0.8 -1.9,-1.4 -6.1,-2.2 -0.9,-9.4 -0.9,-4 -1.7,-1.9 -0.3,-3.1 3,-7.1 -0.9,-3.1 -3,-2.1 -4.9,-2.7 -4,-4 -2.1,-2.7 -8.8,1.2 -0.4,-1.5 0.5,-2 0.3,-1.8 0.2,-0.9 -0.1,-2.4 -2.4,-8.5 v -3.6 l 0.8,-1.9 1.3,-1.8 1.8,-1.3 4,-1.7 6.2,-5.6 3.4,-4.6 3.7,2.3 9.1,3.6 2.7,-0.1 1.6,0.2 19.2,17.1 h 1.8 l 5.9,0.8 2.8,-1.5 2.6,-2.3 3.3,-0.6 z"
     id="IRN3209"
     name="Kohgiluyeh and Buyer Ahmad"
     style="fill:#feb845;fill-opacity:1;stroke:#2e3946;stroke-width:3.914944;stroke-miterlimit:4;stroke-dasharray:none;stroke-opacity:1" /><path
     d="m -322.51476,306.6208 -0.5,0.1 -0.5,-0.5 -0.5,-1.3 -0.4,-1.1 -0.3,-0.7 0.6,-0.4 1.5,0.7 0.5,0.3 -0.2,1 0.1,1 z m 136.7,107.4 -2.2,1.3 -0.7,0.2 -2.4,-0.1 -2.6,-0.6 -0.9,-0.1 -3.3,0.4 -0.6,-0.1 -1,0.5 -0.6,0.3 -0.8,1.6 -4,-1.7 -1.1,-1.2 -0.1,-1.2 0.5,-0.7 0.9,-0.4 1.1,-0.1 h 0.9 l 1.2,-0.1 0.6,-0.6 -0.4,-1.3 -0.9,-0.7 -2.1,-0.8 -0.8,-0.7 -0.4,-0.7 -0.8,-1.9 -0.3,-0.6 -3.9,-4 -1.7,-1.4 -1.9,-0.8 -9.2,-2 -2,-1 -6.1,-5.7 -1.9,-1.2 -2.1,-0.9 -2.5,-0.4 -3.6,0.5 -0.8,-0.3 -0.9,-0.6 -1.9,0.1 -2,0.5 -3.2,0.6 -2.1,-0.3 -4.4,-1 -0.6,-0.1 -0.3,-0.4 -0.1,-0.6 -0.4,-0.7 -1.6,-0.2 -2.2,-0.7 -1.1,-1.2 -1.2,-2 -1.3,-0.8 -0.4,1.7 -1,0.1 -1,-3.5 -1,-1.5 -0.8,-2.1 -2,-3.2 -1.9,-2 -0.3,-1.2 1.1,-3.1 v -1.6 l -1.1,-1.7 -1.8,-1.6 -0.6,-0.8 -1.9,-2.9 -1.7,-1.8 -0.4,-0.6 -3.1,-7.8 -0.4,-1.8 -0.1,-7.6 -0.6,-2.5 -1.2,-2.2 -1.3,-1.5 -1.7,-1.1 -2.2,-0.5 -2.1,-0.1 -1,-0.3 -0.4,-0.6 -0.4,-1.2 -2.5,-3.1 -0.4,-1.1 -0.3,-1.6 0.2,-1.5 1.1,-0.6 1,0.4 1,0.8 0.9,1.1 0.5,1 0.5,-0.5 -0.3,-0.9 0.1,-0.7 0.3,-0.4 1.1,-1 0.3,-0.6 0.2,-1.3 -0.1,-1.3 -0.5,-0.9 -1,0.3 -0.4,-1.8 -0.4,-0.6 -0.6,-0.5 -1.2,0.5 -0.2,-0.3 -0.1,-1 -0.2,-0.8 -1.3,-0.2 -4,0.2 -1,0.2 -1.3,0.8 -1.5,-0.2 -1.1,-1 -0.5,-1.6 -0.1,-1.5 0.2,-0.7 0.4,-0.7 0.8,-1.8 0.4,-0.4 0.8,0.8 0.2,-2.4 0.2,-0.4 -0.5,-0.2 -0.4,-0.3 -0.6,-1.2 0.4,-1.4 v -2.4 l -0.3,-2.3 -0.4,-1.6 -0.7,-1.2 -1,-1.4 -0.8,-0.4 v 1.8 l -0.3,-0.7 -1.5,-2.2 -2.7,-2.3 -0.4,-0.7 -0.4,-1.1 -0.8,-1.1 -1.7,-1.7 -3.1,-1.2 -0.4,-0.7 -0.4,-1.1 -0.7,-1.2 -1.4,-1.5 -1.4,-2.1 -2.3,-4.3 -1.3,-1.8 -0.9,-0.8 -2.2,-1.4 -2,-2 -0.3,-1 -0.1,-1.1 -0.2,-0.7 h 0.9 l 0.1,-0.4 -0.3,-0.4 -0.7,-0.4 0.6,-2 -1.2,-3.4 0.3,-1.5 -0.7,-0.6 -0.8,-1.1 -0.7,-1.2 -0.3,-1 -0.3,-0.6 -1.2,-0.7 3.4,-1.7 5.3,-0.9 3,1.5 7.9,0.4 6.1,2.2 1.9,1.4 0.9,0.8 v 3.1 l 1.4,4.3 2.6,2.6 3.1,6.4 3,1.2 11.4,0.8 7.1,2.3 3.5,3.9 2.8,6.4 3.6,5.8 3.3,3.5 4.2,1.5 4.5,4.2 23.2,43.8 1.2,5.3 7.6,21.5 1.3,2.1 2.3,0.9 1.7,1 3.9,4.6 7,15.7 6.8,8.4 6.7,6.3 z"
     id="IRN3210"
     name="Bushehr"
     style="fill:#feb845;fill-opacity:1;stroke:#2e3946;stroke-width:3.914944;stroke-miterlimit:4;stroke-dasharray:none;stroke-opacity:1" /><path
     d="m -61.51476,-5.8792 0.6,42.2 -1.4,4.4 -4.4,7.7 -3,2.1 -4,0.4 -5.1,2.8 -2.8,3.4 -2.4,10.4 -1.6,4.6 -2,3.7 -2.9,3.5 -5.4,3.2 -54.8,18.9 -16.3,-3.8 -3.8,0.1 -5,2 -3.1,2 -2.3,1.9 -3.3,1.9 -3.7,1.1 -2.1,1.4 -0.4,2 1.5,18.8 -0.5,3.9 -2.1,8.6 -1,7.4 -0.6,1.5 0.2,4.2 2.2,9 h -0.1 l -17.6,5.1 h -3.9 l -11.5,-2.6 -2.4,-2.1 -0.5,-5.6 -0.7,-1.7 -0.9,-0.1 -7.1,3.8 -1,1.4 -1.5,0.7 -6.9,4.7 -3.9,0.5 -5,-1.2 -0.2,1.8 1.2,2.9 1.6,1.6 2,0.8 2.3,0.4 3,2.3 1.5,4.1 -1.3,4.1 -1,6.2 -4.4,10.9 -0.4,5.3 0.5,3.5 v 2 l -1.4,0.5 -3.9,0.6 -1.1,-1.1 -7.2,-5.2 -5.6,-5.9 -2.9,-7.4 -0.3,-4.1 0.5,-2.1 0.1,-4.7 -4.7,-15.6 -1.1,-6.9 0.3,-3.3 1.7,-1.3 2.2,-0.9 -0.1,-1.9 -1.6,-2 -1,-1.8 0.2,-1.9 2.1,-1.4 1.6,-3.3 -0.9,-6.3 -2.7,-4.9 -6,-4.6 -2.7,-2.7 -6.6,-5.1 -0.5,-4.8 0.3,-4.5 -1.2,-1.8 -0.4,-1.8 -0.8,-0.8 -1.3,-0.4 -0.6,-1.5 -0.5,-2.8 -2,-1.7 -2.2,0.3 -1.2,1.3 -2.1,0.7 -6.8,0.2 -2,0.4 -5.8,3.8 -2.3,0.5 -1.6,-0.6 -2.6,0.6 -3.3,-0.4 -3.2,-2.6 -3.1,-1.8 -2.3,0.5 -1.7,0.8 -1.8,0.3 -3.5,-0.4 -10.2,5.5 1.4,-4.6 1.1,-1.7 -2.2,-2.9 -5.2,-2 -4.5,0.3 -2.8,-1.5 -2.5,-6.2 v -0.6 l 0.3,-1.5 0.7,-1.2 1.2,-0.8 4.1,-1.4 2.4,-1.7 0.9,-7.4 3,-3.5 7.7,-2.1 1.2,-0.8 0.1,-1.1 0.3,-1.5 5.2,-10.5 -0.1,-2.7 0.2,-3.3 1.2,-2.5 4.3,-3.6 8.2,-4.9 21.5,-5.6 3.3,-2.1 2.9,-2.4 3.2,-1.1 h 3 l 1.4,-2.4 4.9,-12 0.6,-3.7 -1.4,-0.8 -1.1,-2.7 1.5,-12.3 0.6,-1.8 2,-2 4.9,-2.1 11.2,-1.3 4,0.2 17.4,-4.5 10,5.4 5.1,0.8 14.1,-0.9 3.5,0.6 22,7.3 2.7,0.4 123.4,-3.7 2.9,0.9 1.2,1.1 z"
     id="IRN3211"
     name="Esfahan"
     style="fill:#feb845;fill-opacity:1;stroke:#2e3946;stroke-width:3.914944;stroke-miterlimit:4;stroke-dasharray:none;stroke-opacity:1" /><path
     d="m -191.01476,163.4208 13.2,5 7.8,7.2 6.6,8.1 12.1,30.6 8.6,15.4 8.2,10.1 2.3,4 1.8,13.1 1.5,3.6 8,6.1 10.5,5.3 v 1.2 l 1.4,4.7 4.2,8.7 0.6,2.3 1.2,2 1.2,1.3 2.3,1.4 11.8,1.1 3.1,1.3 10.4,26 3,9 v 1.7 l -1.7,1.2 0.3,2.8 15.5,15.1 1.4,3.7 -0.6,6.6 -2.6,9.6 -0.3,2.4 0.3,1.9 4.3,3.6 2.5,4 -0.3,3.3 -0.9,1.5 -1.2,0.8 -1.5,0.7 -3,-0.2 -4.8,1.3 -7,3.8 -2,3.2 -1.7,5.2 -3,2.8 -6.5,2 -13.7,-2 -4.8,1.1 -2.5,1.1 -2.5,-0.8 -3.1,-0.4 -13.8,1.2 -5.4,1.9 -2.2,2.8 -0.8,4.6 -1.1,3.2 v 0.6 l 0.6,1.7 -1.4,2.3 -5.4,2.9 -15.8,-2.8 h -1.4 l -3.7,0.9 -0.9,-0.1 -0.9,-0.4 -4.4,-3.6 -1.9,-0.8 -11.5,-1 -3.8,-3.6 -1.4,-2.7 -10.3,-7.5 -6.7,-6.3 -6.8,-8.4 -7,-15.7 -3.9,-4.6 -1.7,-1 -2.3,-0.9 -1.3,-2.1 -7.6,-21.5 -1.2,-5.3 -23.2,-43.8 -4.5,-4.2 -4.2,-1.5 -3.3,-3.5 -3.6,-5.8 -2.8,-6.4 -3.5,-3.9 -7.1,-2.3 -11.4,-0.8 -3,-1.2 -3.1,-6.4 -2.6,-2.6 -1.4,-4.3 v -3.1 -0.1 l 5.2,-1.3 8.7,0.5 2.2,-0.3 13.8,-8.1 1.1,-2.3 v -3.1 l -1.2,-2.2 -0.4,-1.3 0.7,-1.2 -0.1,-1.4 -1.6,-4.6 -0.9,-5 0.8,-1 4.2,1.1 5.9,2.9 1.3,0.3 1.2,1.5 1.9,1.1 5.5,1.5 2.9,-0.8 2.5,-1.5 1.3,-1.4 0.3,-0.6 v -2.8 l -1.5,-7.5 3.9,-0.6 1.4,-0.5 v -2 l -0.5,-3.5 0.4,-5.3 4.4,-10.9 1,-6.2 1.3,-4.1 -1.5,-4.1 -3,-2.3 -2.3,-0.4 -2,-0.8 -1.6,-1.6 -1.2,-2.9 0.2,-1.8 5,1.2 3.9,-0.5 6.9,-4.7 1.5,-0.7 1,-1.4 7.1,-3.8 0.9,0.1 0.7,1.7 0.5,5.6 2.4,2.1 11.5,2.6 h 3.9 l 17.6,-5.1 z"
     id="IRN3212"
     name="Fars"
     style="fill:#feb845;fill-opacity:1;stroke:#2e3946;stroke-width:3.914944;stroke-miterlimit:4;stroke-dasharray:none;stroke-opacity:1" /><path
     d="m -20.61476,-245.6792 0.4,4.6 -0.4,1.9 0.2,2.4 0.6,2.7 -0.1,1.6 -1,4.2 0.1,3 1.8,2.1 2.4,1.2 2.1,1.6 1,4 -2.9,4 -6,2.1 -1.4,0.2 -1.6,0.7 -1.6,1.4 -3.7,1.6 -3.8,6.7 -1.6,1.5 -2.1,1.8 -9.6,14.9 -4.3,9.5 -1,7.1 -1.7,4.4 -2.7,1.3 -18.4,-2.6 -4.4,0.5 -9.1,5.2 -8.7,6.9 -3.2,3.5 -7.3,3.5 -3.6,0.8 -4.1,-0.7 -10.1,0.2 -2.1,-3.2 -5.5,-5.7 -11.4,-6.9 -1.8,-3.1 -0.6,-1.6 v -0.9 l 7.8,0.7 0.8,0.5 0.9,0.3 6.4,-1.8 0.7,-0.5 0.3,-1.1 v -6.7 l -0.2,-1.1 -0.8,-0.4 -1,-0.4 0.2,-1 1.1,-2.2 -1.2,-1.9 -0.8,-2.4 -1.2,-5.4 -1.5,-4.3 -0.3,-0.9 -0.5,-5.5 14.1,1.2 h 1.1 l 0.9,-0.4 1,-1 0.9,-0.6 1.1,-0.1 1.2,0.2 h 1.2 l 1.8,-0.6 8.8,-5.1 1.1,-0.2 3.2,0.7 h 1.1 l 0.8,-0.4 1.3,-1.3 1,-0.5 0.6,-0.6 2.5,-1.6 1.3,-1.1 0.3,-0.5 0.1,-1 0.7,-1.6 0.2,-0.9 v -1.6 l -0.3,-0.9 -0.6,-0.5 -0.1,-0.4 -0.1,-1.4 0.9,-2 0.2,-1.3 0.3,-1 0.6,-1.1 1.6,-1.7 7.8,-5.4 2.4,-2.7 0.4,-0.7 0.2,-0.9 0.7,-0.3 1.3,-0.3 0.3,-0.5 0.6,-1.2 0.4,-0.5 1,-0.4 3,-0.5 0.7,-0.3 0.4,-1 1.2,-0.7 2.3,-0.8 h 0.6 l 1.1,-0.9 1,-0.6 3.9,-2.9 1.2,-0.6 3.3,-0.1 10.2,-2.2 h 1.6 l 3.2,0.8 2,1.1 0.8,0.3 h 2.6 l 0.9,0.3 1.4,0.7 0.7,0.3 h 0.8 l 7.4,-1.3 2.1,0.2 z"
     id="IRN3213"
     name="Golestan"
     style="fill:#feb845;fill-opacity:1;stroke:#2e3946;stroke-width:3.914944;stroke-miterlimit:4;stroke-dasharray:none;stroke-opacity:1" /><path
     d="m -147.81476,-163.2792 v 0.9 l 0.6,1.6 1.8,3.1 11.4,6.9 5.5,5.7 2.1,3.2 -5.2,1.6 -4.3,2.5 -3.9,3.9 -1.8,3.6 -1.2,3.8 -0.8,5.2 -2,2.4 -5.3,4.7 -1.2,1.8 -0.6,1.6 -1.3,1.7 -2.2,2 -3.7,2 -3.9,1.2 -2.6,0.4 -1.7,-0.9 -2.7,0.9 -3.3,1.9 -2.4,0.7 -5.2,0.5 -0.8,0.4 -4.6,-3.2 -2.3,-0.6 -1.7,1 -2.7,0.4 -3.9,-0.8 -5.9,-3.2 -4.7,-0.9 -3.7,-1.5 -3.4,-0.5 -4.7,3.8 -6.7,8.1 -3.6,1.5 -4.1,-0.3 -2.5,-0.9 -1.6,-0.9 -1.8,-2.2 -3,-5.6 -5.3,-5.7 -7,-2.8 -7.9,-0.7 -5.6,-3.3 -3.4,-3.9 -8.5,-1.9 -2.1,-0.9 -2,-1.9 -0.9,-1.3 -3.3,-1.3 -8.6,-1.7 v -1.3 l -0.6,-1.8 -8.4,-6.4 -2.9,-1.5 -13.7,-11.7 2.6,-1.7 3.2,-5.7 1.1,-5.3 2.1,-2.1 2.7,-1.4 1.8,-2.5 0.5,-1.9 2.5,1.7 1,0.3 0.8,0.3 1.5,1.7 0.8,0.6 8.1,4.5 7.5,5.3 4.3,1.9 14.4,2.9 9.2,2.7 9.6,1.7 9.2,2.7 9.6,-1.3 8.5,-3.1 8.9,-2.2 9.2,-1.8 8.8,-1.8 8.8,-2.6 8.6,-2.7 17.1,-3.8 2.4,-0.4 20.3,-1.2 3.7,-0.9 2.5,-2.1 -0.1,2.5 -2.9,1 -3.7,0.4 -2.3,0.8 -0.7,0.3 -0.7,-0.1 -1.4,-0.4 -0.8,0.1 -1.4,0.5 -0.8,0.2 -3.1,-0.4 h -2.6 l 0.4,0.7 0.7,0.3 1.7,-0.1 -1.4,0.4 1.2,1.7 2.1,0.9 z"
     id="IRN3214"
     name="Mazandaran"
     style="fill:#feb845;fill-opacity:1;stroke:#2e3946;stroke-width:3.914944;stroke-miterlimit:4;stroke-dasharray:none;stroke-opacity:1" /><path
     d="m 5.48524,-152.0792 1,-0.3 1.7,0.1 2.1,1.3 1.2,5 -1.3,6 -2.1,4 -0.8,7 1,12.1 1.6,7.7 1.5,3.6 12.2,10 3.4,3.9 -0.8,4.5 -9,15.5 -2.2,5.1 -1.5,1.2 -11,4.1 -5.8,3.5 -6.7,6.2 -8.3,10.3 -18.6,31.3 -5.7,3 -13.2,-0.3 -4.8,0.9 -0.9,0.4 v 0.1 l -0.5,-0.6 -1.2,-1.1 -2.9,-0.9 -123.4,3.7 -2.7,-0.4 -22,-7.3 -3.5,-0.6 -14.1,0.9 -5.1,-0.8 -10,-5.4 1.7,-2.5 2.3,-5.4 1.4,-5.5 0.1,-5.1 -0.7,-2.5 0.2,-2.7 1.6,-5.1 2.7,-4.1 0.6,-3.9 -2.3,-4.2 -5.9,-7.8 -0.4,-2.7 0.4,-2.9 0.9,-3.8 0.7,-5.9 0.9,-0.9 1,0.5 0.6,0.6 1.1,0.4 3.1,0.1 2.8,2.5 9.5,5.8 3.7,1.3 4,0.1 11.6,3.4 4.2,0.2 5.9,-2 5.1,-2.7 8.2,-7.5 1.7,-5.8 -0.7,-6.4 -1.6,-7.1 0.8,-0.4 5.2,-0.5 2.4,-0.7 3.3,-1.9 2.7,-0.9 1.7,0.9 2.6,-0.4 3.9,-1.2 3.7,-2 2.2,-2 1.3,-1.7 0.6,-1.6 1.2,-1.8 5.3,-4.7 2,-2.4 0.8,-5.2 1.2,-3.8 1.8,-3.6 3.9,-3.9 4.3,-2.5 5.2,-1.6 10.1,-0.2 4.1,0.7 3.6,-0.8 7.3,-3.5 3.2,-3.5 8.7,-6.9 9.1,-5.2 4.4,-0.5 18.4,2.6 2.7,-1.3 1.7,-4.4 1,-7.1 4.3,-9.5 9.6,-14.9 2.1,-1.8 7.9,10.5 3.6,2.6 2.1,-0.4 2.5,1.1 -0.6,1.5 -3,0.9 -1.3,1 -0.3,1 0.6,1.2 0.3,1.7 -0.3,4.4 -0.9,3.9 -0.2,1.3 0.9,2 6.2,6.9 5.8,5.1 2.9,0.9 5,0.9 2.5,1 z"
     id="IRN3215"
     name="Semnan"
     style="fill:#feb845;fill-opacity:1;stroke:#2e3946;stroke-width:3.914944;stroke-miterlimit:4;stroke-dasharray:none;stroke-opacity:1" /><path
     d="m -182.51476,-99.9792 1.6,7.1 0.7,6.4 -1.7,5.8 -8.2,7.5 -5.1,2.7 -5.9,2 -4.2,-0.2 -11.6,-3.4 -4,-0.1 -3.7,-1.3 -9.5,-5.8 -2.8,-2.5 -3.1,-0.1 -1.1,-0.4 -0.6,-0.6 -1,-0.5 -0.9,0.9 -0.7,5.9 -0.9,3.8 -0.4,2.9 0.4,2.7 5.9,7.8 2.3,4.2 -0.6,3.9 -2.7,4.1 -1.6,5.1 -0.2,2.7 -29.4,-17.6 -12.5,-3.8 -14.8,-0.1 v -0.2 l 4.5,-14.5 -0.1,-4.4 -1.3,-2.6 -2.4,-3 1.4,-3.2 3.3,-2 2.7,-3.4 1.5,-3.8 4.6,-0.3 0.6,-3.1 0.2,-4.1 3.1,-3.6 4.2,-1.5 4.2,0.5 2.9,-1.8 v -3.6 l 0.2,-2.8 5.6,3.3 7.9,0.7 7,2.8 5.3,5.7 3,5.6 1.8,2.2 1.6,0.9 2.5,0.9 4.1,0.3 3.6,-1.5 6.7,-8.1 4.7,-3.8 3.4,0.5 3.7,1.5 4.7,0.9 5.9,3.2 3.9,0.8 2.7,-0.4 1.7,-1 2.3,0.6 z"
     id="IRN3216"
     name="Tehran"
     style="fill:#feb845;fill-opacity:1;stroke:#2e3946;stroke-width:3.914944;stroke-miterlimit:4;stroke-dasharray:none;stroke-opacity:1" /><path
     d="m 81.78524,93.0208 0.3,4.7 -0.4,1.9 -1.4,2.3 -0.9,2.2 0.4,1.4 0.7,1.4 1.6,1.7 v 1.9 l 1.6,3.4 2.1,3.4 -0.1,3.4 -1.2,3.4 -0.5,3 -0.8,2.8 -6.9,9.3 -1.9,5.3 -5.3,8.3 -2.7,6.9 -0.8,1.2 -55.4,-23.9 -6.6,-1.1 -1.1,1.7 -2.4,2.5 -10.8,6.1 -3.6,3.9 -27.5,14.5 -2.3,5 -0.6,19 -0.8,4.2 -8.8,3.9 -9.7,1.3 -4.3,-0.8 -6.6,-0.3 -29,5.2 -4.6,5.1 -2.4,4.5 -1.1,4.4 0.1,3 2.9,5.5 3.1,8 1.2,6 1.7,2 1.6,1.2 -0.6,19.4 0.5,3.4 0.7,2.3 0.1,1.7 -1.6,1.2 -5.3,0.6 -0.5,0.5 -2.3,1 -10.5,-5.3 -8,-6.1 -1.5,-3.6 -1.8,-13.1 -2.3,-4 -8.2,-10.1 -8.6,-15.4 -12.1,-30.6 -6.6,-8.1 -7.8,-7.2 -13.2,-5 -2.2,-9 -0.2,-4.2 0.6,-1.5 1,-7.4 2.1,-8.6 0.5,-3.9 -1.5,-18.8 0.4,-2 2.1,-1.4 3.7,-1.1 3.3,-1.9 2.3,-1.9 3.1,-2 5,-2 3.8,-0.1 16.3,3.8 54.8,-18.9 5.4,-3.2 2.9,-3.5 2,-3.7 1.6,-4.6 2.4,-10.4 2.8,-3.4 5.1,-2.8 4,-0.4 3,-2.1 4.4,-7.7 1.4,-4.4 -0.6,-42.2 v -0.1 l 0.9,-0.4 4.8,-0.9 13.2,0.3 5.7,-3 18.6,-31.3 21.1,-5.6 20.6,-9.7 13,-3.4 5.7,1.5 15.1,11.6 1.8,4 -0.7,4 -5,4.9 -20.5,14.6 -3.5,6.3 -6.6,19.7 -0.4,10.5 3.2,18 2.5,3.8 10.2,1.3 13.2,-3.1 2.3,2.8 2,4 3.9,26.1 3.3,7.7 4.4,2.5 1.3,1 3.3,1.5 4.4,2.8 4.2,6.5 z"
     id="IRN3217"
     name="Yazd"
     style="fill:#feb845;fill-opacity:1;stroke:#2e3946;stroke-width:3.914944;stroke-miterlimit:4;stroke-dasharray:none;stroke-opacity:1" /><path
     d="m -271.61476,189.6208 -1.8,-0.1 -3.3,0.6 -2.6,2.3 -2.8,1.5 -5.9,-0.8 h -1.8 l -19.2,-17.1 -1.6,-0.2 -2.7,0.1 -9.1,-3.6 -3.7,-2.3 1.9,-3.6 2.8,-3.5 0.1,-2.8 -1.5,-3.4 -4.4,-4.7 -1,-1.8 -2.5,-2.3 -1.6,-2.6 -1.6,-3.6 -1.4,-5.1 -0.7,-1.6 -0.8,-0.9 -2.5,-0.8 -0.7,-0.8 -1.3,-1 -1.3,-1.6 -1.6,-4.1 -7.8,-12.4 -0.8,-3.7 -0.2,-1.8 10.2,-5.5 3.5,0.4 1.8,-0.3 1.7,-0.8 2.3,-0.5 3.1,1.8 3.2,2.6 3.3,0.4 2.6,-0.6 1.6,0.6 2.3,-0.5 5.8,-3.8 2,-0.4 6.8,-0.2 2.1,-0.7 1.2,-1.3 2.2,-0.3 2,1.7 0.5,2.8 0.6,1.5 1.3,0.4 0.8,0.8 0.4,1.8 1.2,1.8 -0.3,4.5 0.5,4.8 6.6,5.1 2.7,2.7 6,4.6 2.7,4.9 0.9,6.3 -1.6,3.3 -2.1,1.4 -0.2,1.9 1,1.8 1.6,2 0.1,1.9 -2.2,0.9 -1.7,1.3 -0.3,3.3 1.1,6.9 4.7,15.6 -0.1,4.7 z"
     id="IRN3218"
     name="Chahar Mahall and Bakhtiari"
     style="fill:#feb845;fill-opacity:1;stroke:#2e3946;stroke-width:3.914944;stroke-miterlimit:4;stroke-dasharray:none;stroke-opacity:1" /><path
     d="m -367.71476,89.3208 2.5,6.2 2.8,1.5 4.5,-0.3 5.2,2 2.2,2.9 -1.1,1.7 -1.4,4.6 0.2,1.8 0.8,3.7 7.8,12.4 1.6,4.1 1.3,1.6 1.3,1 0.7,0.8 2.5,0.8 0.8,0.9 0.7,1.6 1.4,5.1 1.6,3.6 1.6,2.6 2.5,2.3 1,1.8 4.4,4.7 1.5,3.4 -0.1,2.8 -2.8,3.5 -1.9,3.6 -3.4,4.6 -6.2,5.6 -4,1.7 -1.8,1.3 -1.3,1.8 -0.8,1.9 v 3.6 l 2.4,8.5 0.1,2.4 -0.2,0.9 -0.3,1.8 -0.5,2 0.4,1.5 8.8,-1.2 2.1,2.7 4,4 4.9,2.7 3,2.1 0.9,3.1 -3,7.1 0.3,3.1 1.7,1.9 0.9,4 0.9,9.4 -7.9,-0.4 -3,-1.5 -5.3,0.9 -3.4,1.7 -1.3,-0.6 -1.9,-0.2 -1.9,0.3 -1.9,0.7 -16.2,10.4 -1.9,0.8 -1.7,-0.4 -1.4,-2.1 -0.1,-1 -0.1,-2.7 -0.4,-1 -0.7,-1.2 -0.5,-0.3 -1,-0.3 -1.1,-0.1 -1.7,0.3 -0.6,0.1 -0.6,-0.1 -0.8,-0.6 -0.4,-0.1 -1.1,0.2 -1.9,0.8 -1.1,0.2 -1.3,-0.1 -0.5,-0.5 0.1,-2.5 -0.9,-0.7 -0.2,-0.3 v -1.2 l 0.3,-0.9 v -0.4 l -0.7,-0.4 -0.3,1 -0.5,1 -0.8,0.8 -0.8,0.1 -1,-0.6 -0.4,-0.8 -0.6,-0.6 -0.9,-0.1 -1.2,-0.4 -3.4,-2 -0.7,-0.6 -0.3,-2 -0.9,-1.2 -1.4,-0.7 -1.7,-0.4 0.6,-1 0.9,-0.2 2.1,0.3 h 1.1 l 1.7,-0.6 0.9,-0.2 1.1,0.3 2.1,1.1 0.7,0.3 1.2,0.1 0.8,0.4 0.7,0.6 0.7,0.9 0.3,-0.8 1,-1.7 1.5,-2 0.3,-0.6 0.1,-1.1 -1.1,0.3 -0.8,-0.5 -0.5,-1 -0.4,-2.2 -0.6,0.3 -0.8,0.9 -0.8,0.6 0.1,-0.8 0.3,-0.4 -0.5,-0.7 -0.4,0.1 -0.5,0.4 -0.8,0.2 -0.3,-0.2 -0.5,-0.9 -0.4,-0.2 -1.1,0.5 -1,-0.2 -0.9,-0.3 h -0.9 l -0.9,0.5 -1.8,-0.3 -1.5,0.9 -0.4,1.2 1.4,0.7 1.6,0.3 1.3,0.8 0.4,1.1 -1,1 h -0.9 l -2.8,-0.4 -0.6,0.2 -2.8,2.7 -0.6,0.9 -0.3,0.8 0.6,0.5 -0.7,1.2 0.3,1.3 0.9,1 1.1,0.8 0.8,0.9 0.5,1.1 0.3,1.3 0.3,2.7 -0.1,0.7 -0.5,1.3 -0.1,0.7 v 0.6 l 0.3,1.1 v 0.7 l -0.3,1.2 -0.7,1 -0.9,0.8 -1.1,0.3 -3.5,-0.4 -0.9,0.4 -1,-0.5 -3.6,0.1 -2.2,-1.3 -0.8,-0.1 -0.2,1 0.3,0.7 0.7,1.1 0.1,0.9 -0.1,0.5 -0.4,0.6 -0.9,0.7 -1.2,0.3 -4.5,-0.4 -1.6,-0.4 -0.8,-0.5 -0.7,-0.6 -0.6,-0.7 -0.4,-1.2 -0.1,-0.8 -1,-2.9 -0.4,-0.7 -1,-1.2 -0.7,-1.4 -0.1,-0.4 0.1,-0.7 0.9,-0.9 0.4,-0.5 0.1,-0.7 -0.1,-0.6 -0.6,-1.1 -2,-1.9 -1.6,-1.9 -1.1,-1.7 -0.5,-0.5 -0.6,-0.2 h -0.6 l -1.9,0.3 -1.3,-0.1 -0.5,-0.2 -0.5,-0.5 -0.2,-0.5 -0.4,-2.7 -0.5,-1.3 -0.6,-1.2 -0.9,-0.9 -1.1,-0.5 -5.5,-0.8 -0.1,-1.8 0.2,-29 -0.1,-0.8 -0.6,-0.3 h -17 l 0.3,-25 7.9,-21.5 0.3,-1.4 -0.1,-1.3 -0.7,-1.1 -2.1,-1.5 -0.8,-1 -0.5,-1.5 -0.3,-0.5 -0.3,-0.4 -1,-0.6 -0.3,-0.5 -1.9,-3.3 -0.2,-1.1 -0.5,-1.1 -1.8,-0.9 -0.8,-0.9 -1.2,-2.7 -0.8,-1.1 1.4,-0.5 5.4,-3.6 1.9,-3 -0.7,-3.9 v -3.1 l 3.7,-5.2 4.8,-11.1 2.8,-4.2 7.1,-18.6 2.8,-2.1 12.7,-0.9 3.7,-1.1 5.5,-0.4 5.3,1.6 2.7,2.6 3.2,0.9 11.4,1.2 12.1,8.3 7.3,0.7 z"
     id="IRN3219"
     name="Khuzestan"
     style="fill:#feb845;fill-opacity:1;stroke:#2e3946;stroke-width:3.914944;stroke-miterlimit:4;stroke-dasharray:none;stroke-opacity:1" /><path
     d="m -458.61476,-6.3792 1.3,0.6 2.2,1.4 1.1,1.6 22.2,14.6 11.5,1.4 1.9,0.7 1.5,-0.4 2.7,-2.8 1.4,-0.3 2.7,0.1 3.4,-0.4 14.1,6.1 -0.8,1.3 -0.4,2 0.7,1.7 0.2,1.4 -2.1,4.8 -0.4,1.4 -0.3,1.5 0.7,1.3 2.6,1.5 3.4,1.3 5.8,0.5 1.5,0.5 4.1,-2.6 1,-1 1.7,-5.5 2.3,-1.3 2.9,-1 2.6,-1.4 2.8,0.9 2.3,2.7 1.4,2.4 0.1,1.7 -0.9,1.8 -0.5,1.8 0.5,1.5 1.7,1.4 3.8,2 1.8,1.9 1.6,1.2 1.2,-0.8 0.4,-1.6 1,-2 1.8,-1.3 1.1,0.7 0.9,1.5 1.6,1.3 1.1,1.1 v 1.8 l 0.3,1.8 3.3,1.8 0.5,0.5 -1.2,2.5 -0.2,3.3 0.1,2.7 -5.2,10.5 -0.3,1.5 -0.1,1.1 -1.2,0.8 -7.7,2.1 -3,3.5 -0.9,7.4 -2.4,1.7 -4.1,1.4 -1.2,0.8 -0.7,1.2 -0.3,1.5 v 0.6 l -3.7,0.8 -7.3,-0.7 -12.1,-8.3 -11.4,-1.2 -3.2,-0.9 -2.7,-2.6 -5.3,-1.6 -5.5,0.4 -3.7,1.1 -12.7,0.9 -2.8,2.1 -7.1,18.6 -2.8,4.2 -0.6,-0.6 -1.1,-1.5 -8.3,-17.6 -6.1,-8 -1.7,-1.9 -0.7,-0.4 -1,-0.3 -0.7,-0.7 -1,-2 -1.2,-1.4 -0.6,-0.3 h -0.8 l -0.6,-0.2 -0.3,-0.8 -0.6,-0.7 -6.3,-3.1 -2.2,-0.6 -1.3,-0.8 -1,-1 v -0.8 l -0.9,-0.4 -2.5,-2 -0.6,-0.5 h -0.7 l -0.3,0.3 -0.6,-0.1 -0.4,-0.7 -1.9,-0.6 -1,-0.5 -0.6,-0.6 -0.7,-0.8 -0.2,-0.5 0.6,-1.1 0.1,-0.6 -0.2,-0.6 -0.5,-0.2 -2.8,-1.7 -1.1,-0.4 -1.4,-1.7 -1.6,-0.9 -1.2,-2.1 -0.8,-0.4 v -0.5 l 0.8,-2.4 0.1,-0.9 0.9,-0.4 0.9,-0.1 1.1,-2.9 3.2,-3 18.1,-5.1 1.1,-1.5 2.8,-1.9 1.3,-1.3 0.7,-1.4 0.2,-2 -0.4,-3 -1.2,-2.8 -0.7,-1 0.9,-0.6 0.7,-1.2 -0.2,-0.5 v -0.7 l 0.1,-1.1 -0.1,-0.7 -0.2,-0.6 -0.7,-0.7 -0.1,-0.6 0.3,-0.9 3,-1.5 3.7,-0.2 2.5,-1.3 0.3,-3.5 -0.5,-3.4 0.2,-1.4 0.9,-0.6 1.5,-0.5 z"
     id="IRN3220"
     name="Lorestan"
     style="fill:#feb845;fill-opacity:1;stroke:#2e3946;stroke-width:3.914944;stroke-miterlimit:4;stroke-dasharray:none;stroke-opacity:1" /><path
     d="m -474.51476,13.1208 0.7,1 1.2,2.8 0.4,3 -0.2,2 -0.7,1.4 -1.3,1.3 -2.8,1.9 -1.1,1.5 -18.1,5.1 -3.2,3 -1.1,2.9 -0.9,0.1 -0.9,0.4 -0.1,0.9 -0.8,2.4 v 0.5 l 0.8,0.4 1.2,2.1 1.6,0.9 1.4,1.7 1.1,0.4 2.8,1.7 0.5,0.2 0.2,0.6 -0.1,0.6 -0.6,1.1 0.2,0.5 0.7,0.8 0.6,0.6 1,0.5 1.9,0.6 0.4,0.7 0.6,0.1 0.3,-0.3 h 0.7 l 0.6,0.5 2.5,2 0.9,0.4 v 0.8 l 1,1 1.3,0.8 2.2,0.6 6.3,3.1 0.6,0.7 0.3,0.8 0.6,0.2 h 0.8 l 0.6,0.3 1.2,1.4 1,2 0.7,0.7 1,0.3 0.7,0.4 1.7,1.9 6.1,8 8.3,17.6 1.1,1.5 0.6,0.6 -4.8,11.1 -3.7,5.2 v 3.1 l 0.7,3.9 -1.9,3 -5.4,3.6 -1.4,0.5 -0.1,-0.1 -1,-0.4 -0.8,-0.1 -0.8,-1.2 -0.7,-0.4 -0.8,-0.2 -0.4,-0.3 0.1,-1.3 0.2,-0.7 0.6,-1.1 v -0.9 l -0.2,-0.8 -1,-0.8 -0.3,-0.7 -0.8,-0.6 -1.4,-2 -1.5,-1.5 -0.6,-1.1 0.7,-1.7 0.4,-0.7 v -0.8 l -0.3,-0.4 -1.4,-1.1 -0.9,-1.1 -0.6,-0.9 -0.6,-0.8 -1.1,-0.6 -3,-1 h -0.7 l -2.4,1.3 -0.9,0.3 -1.8,0.2 -1.6,-0.3 -1.6,-0.9 -1.7,-1.2 -15.5,-13.6 -2.2,-2.4 -3.4,-2.1 -2.3,-1.9 -5,-2.9 -1.5,-1.5 -5.1,-2.5 -5.5,-1.7 -6.1,0.7 -3.1,-0.4 -1.1,-2.4 0.7,-0.8 0.8,-0.7 0.8,-0.8 0.3,-1 -0.2,-0.9 -0.8,-0.6 -1,-0.5 -2.2,-0.2 -0.8,-0.6 0.1,-0.8 1,-0.6 1.2,-0.1 0.8,0.1 0.9,-0.2 1.1,-0.8 1.4,-1.4 0.7,-0.9 0.3,-0.8 v -0.5 l -0.6,-0.4 -0.2,-0.6 v -0.5 l 0.3,-1.2 v -0.6 l -0.4,-1 -0.8,-0.8 -1.6,-1.3 -2.1,-2.9 -1.7,-1.7 -0.3,-0.9 v -1 l -0.2,-1.3 -0.4,-1.2 -0.6,-1 -1.7,-2.2 -0.8,-0.4 -0.6,0.2 -0.9,0.9 -1.6,0.2 -1.5,-0.4 -0.9,-0.7 0.8,-1.1 2.5,-1.5 0.6,-1 -0.4,-1.3 -1.1,-0.8 -0.9,-0.9 0.2,-1.9 -1.1,0.3 h -2.5 l -0.9,0.4 -1.5,1.4 -0.9,0.6 -0.9,0.2 -0.3,-0.4 v -2.2 l -0.2,-0.5 1.2,-0.9 1.1,-9 1.9,-6.3 0.6,-4 -0.7,-2.3 0.9,-1.2 3.1,0.1 8,-1 7.7,3.2 4.2,0.3 4.2,1 3.4,2.1 3.8,3.3 13,4.2 6.1,0.5 8.8,-2.3 8.1,0.4 1,-2.1 0.8,-4 -0.8,-1.6 -1.4,-2.1 v -2 l 8.3,-1.9 1.7,0.2 z"
     id="IRN3221"
     name="Ilam"
     style="fill:#feb845;fill-opacity:1;stroke:#2e3946;stroke-width:3.914944;stroke-miterlimit:4;stroke-dasharray:none;stroke-opacity:1" /><path
     d="m -78.11476,501.8208 -0.4,0.3 -0.7,0.2 -0.7,-0.6 -0.4,-0.9 0.8,-0.4 0.9,-0.3 0.2,0.5 z m -25.9,-2.1 -0.5,0.4 -0.7,-0.1 -0.8,-0.4 -0.2,-0.7 0.6,-0.3 1.3,-0.4 0.2,0.5 z m -1.4,-20.2 h -0.3 l -1.2,-0.5 -0.3,-0.3 -0.2,-1.9 0.2,-0.7 0.4,-0.4 0.4,-0.2 0.5,0.1 0.5,0.5 0.4,0.2 0.5,0.5 0.2,0.4 z m -24.7,-14 -0.6,0.3 -4.2,-0.2 -1.7,-0.8 -1,-1.8 0.5,-0.8 0.8,-0.5 0.9,-0.3 h 1 l 0.9,0.3 1.9,0.2 0.7,0.3 0.2,0.4 v 1 l 0.7,0.5 0.1,0.7 z m 95.2,-7.5 -1.1,0.6 -0.8,-0.5 0.1,-1.3 0.7,-1.3 0.8,-0.6 0.5,-0.1 0.4,0.6 0.1,1.3 z m -115.3,-2.6 -0.7,0.7 -0.9,-0.2 -0.9,-0.4 -0.5,-0.7 0.4,-0.7 h 1 l 1.2,0.4 z m -14.3,-7.8 -0.8,0.2 -2,-0.2 -0.6,0.2 -0.9,0.5 h -1 l -3,-0.5 -0.9,-0.4 -0.8,-0.5 -1.6,-1.4 -0.5,-0.5 0.2,-0.2 1.3,-0.3 4.4,1.3 3.8,0.3 1.3,0.5 z m 154.9,-2.1 -2,0.7 -0.9,-0.4 0.2,-1.6 0.7,-1 1.3,-0.6 2,-0.2 0.3,1.8 z m -10.7,-3.9 -1.2,2.6 -0.6,1 -2.1,2.2 -0.4,0.8 -0.4,0.4 -2,1 -0.4,0.6 -0.5,0.2 -2.5,2.5 -1.5,0.9 -1.2,-0.5 -1.2,-1.2 -1.3,-1 -3.4,1.8 -1,0.8 -1,0.5 h -1.1 l -2.3,-0.3 -1.1,0.2 -1.1,0.5 -2.7,2 -2.9,1.3 -1.8,1.3 -0.9,0.5 -3.2,0.3 -2.3,0.6 -0.9,0.7 -0.5,0.1 -1,-0.2 h -0.5 l -0.5,0.8 -0.6,0.4 -1.1,0.2 -0.4,-0.3 -0.2,-0.6 -0.3,-1.5 0.4,-1 0.1,-0.6 -0.3,-0.3 -0.5,-1.8 0.5,-0.6 2.5,0.8 0.5,-0.2 0.5,0.1 2.7,-1.5 6.9,-2.3 1,-0.1 0.9,-0.3 2.4,-1.5 1,-0.8 3.4,-1.4 1.6,0.1 0.9,-0.2 0.5,-0.5 0.5,-0.1 -0.4,-0.8 0.8,-0.9 0.2,-1.1 -0.2,-2.6 -0.4,-1 -0.9,-0.9 -0.9,-0.6 -0.3,-0.5 1.3,-0.8 7.2,2.8 2,-0.5 5.4,-3.5 6.8,-1.6 h 2.1 l 1,0.3 1.3,0.5 1.1,0.9 0.5,1.1 -1.7,0.9 -3.2,0.9 z m 16,-8.1 -0.8,0.1 -1.6,-0.6 0.1,-1.5 0.9,-1.3 0.9,-0.2 1.2,0.6 0.5,0.4 0.2,0.9 -0.2,0.7 -0.5,0.5 z m 123.1,59.9 -0.6,0.3 -0.9,1.5 -0.3,1.8 0.2,1 0.7,0.3 1.9,1.2 9.8,8.7 1.6,2.7 0.3,2.1 1.1,1.2 1.6,0.6 0.8,1 0.4,1.2 0.7,0.9 0.9,0.9 1.8,3.1 0.4,0.5 1,0.5 -0.2,1.8 -1.4,0.6 0.3,1.4 -2.9,0.4 -3,1.4 -1.1,0.3 -0.4,-0.1 -0.7,-0.6 -1.5,0.4 -1.1,-0.1 -1.1,-0.2 -0.8,-0.3 -0.7,-0.6 -2.4,-3.8 -1.3,-1.6 -2,-0.9 h -1.8 l -0.5,-0.2 -0.7,-1.6 -0.6,-0.2 h -4.5 l -9.4,-1.7 -3.2,0.5 -2.8,-0.1 -0.9,-0.5 0.3,-0.9 -1.5,0.1 -1.6,0.3 -0.7,0.4 -1.2,1 -0.8,0.2 -0.8,-0.4 -1,0.9 -0.5,0.1 -1,-0.3 -1.8,1.3 -1.9,0.3 -1.7,-0.4 -1.6,-0.5 -1.7,-0.3 -1.4,-0.6 -1.2,-1.5 -1.5,-3.3 -1.6,-2 -2,-0.5 -2.1,0.6 -2.1,1.1 -1.8,1.4 -1.1,0.7 h -0.8 l 0.2,-2.5 0.4,-1.2 -0.1,-0.4 -0.5,-1.3 -0.8,-0.7 -1.1,-0.3 -1.3,-0.1 -1.2,0.2 -2.8,0.6 -0.7,-0.1 -1,-0.5 -0.7,-0.2 -0.5,0.1 -1.6,0.3 -1.3,-0.1 -3.5,-1.1 0.4,-0.3 -6.9,-0.5 -0.8,-0.4 -0.4,-0.9 -0.3,-2.8 -1.2,-2.9 -0.7,-2.4 -0.4,-1.1 -1.7,-2 h -1.1 l -0.3,-1 -0.7,-2 -0.2,-1 -0.5,-1.1 -0.1,-0.7 0.3,-1.2 1.6,-1.7 0.6,-1.2 -0.7,-1.8 -3.4,-3.8 0.3,-1.6 -0.4,-0.3 -0.3,-2.6 -0.4,-1.3 -0.6,-1.1 -1,-0.9 -0.4,-1 -0.2,-1.8 0.9,-7.2 -0.2,-2.7 -3.3,-13.5 -0.7,-1 -1.8,-1.5 -0.6,-1 0.1,-0.9 -1.6,-1.1 -0.6,-0.5 h 0.8 l 1.7,-0.8 -0.4,-0.4 -0.1,-0.6 0.5,-1 -1.6,0.7 -0.5,0.1 -0.5,-0.1 -0.5,-0.6 -0.5,-0.3 -0.6,-0.6 -1.1,0.5 -0.3,-0.2 -0.1,-1.1 -0.6,0.2 -0.4,-0.3 v -0.5 l 0.8,-0.4 0.9,-1 0.4,-0.3 v -0.5 l -1.5,-0.2 -1.2,-0.8 -0.9,-1.2 -0.3,-1.3 -0.6,0.6 -0.7,0.2 h -1.4 l -0.7,-0.2 -0.9,-1.2 -0.5,-0.2 -5.3,-0.1 -1.2,-0.4 -0.4,0.5 -1.2,-0.7 -1.6,-0.3 -3.2,-0.2 -1.5,-0.3 -2.7,-1.1 -1.7,-0.2 -3.1,0.1 -1.7,0.5 -1.2,0.8 -1.1,0.5 -3.3,0.2 -1.4,0.2 -0.4,0.3 -0.9,0.9 -0.3,0.9 -0.6,0.3 -1.4,1 -3.5,2.1 -1.2,1.1 v 0.2 l -1.2,1 -0.6,0.2 -2.3,0.3 -2.1,0.5 -0.6,0.1 -1.7,-0.1 -0.6,0.1 -0.8,0.6 -0.4,0.1 h -2 l -1.6,-0.4 h -0.5 l -1,0.4 -1.7,1.7 -1.2,0.8 -2.8,3.1 0.7,-0.3 0.7,-0.5 0.2,1.4 -0.3,1.8 -0.6,1.6 -0.7,1.2 -1.7,1.5 -2,1 -2.1,0.4 -2.4,-0.1 -4.1,-1.5 -2.4,-0.3 -2,0.9 -0.6,1.1 -0.3,1.1 -0.5,0.7 -1.2,0.3 -1,0.2 -2.3,0.6 -0.8,0.4 -3.3,3 -0.6,0.4 -5,4 -5.6,3.3 -1.1,1 -0.5,0.2 -0.7,-0.1 -0.8,-0.6 -0.6,-0.1 -4.5,0.4 -2.2,-0.3 -0.9,-1.3 -0.7,-1.7 -1.5,-1.5 -2.3,-0.4 -4.7,0.2 -1.9,-0.9 -0.9,-1.5 -0.8,-1.9 -0.9,-1.7 -1.6,-1.3 -1.1,-0.2 -1,0.2 -1,0.2 -3.9,0.3 -1.1,-0.1 -3.6,-1 -1.4,-0.4 -1,-0.8 -0.4,-0.2 h -0.6 l -1,0.2 -3.4,1.6 -2.4,0.4 -2.1,0.6 h -1.2 l -2.3,-0.8 -1.2,-0.1 -1.2,0.7 -0.7,-0.2 -2.7,-2.4 -3.9,-2.3 -5,-3.8 -0.7,-0.9 -0.3,-1.1 -0.1,-2.8 -0.5,-1.1 -0.8,-1.1 -1.7,-1 -17.6,-6 -1.1,-0.1 -1.1,-0.4 -0.7,-0.7 -0.6,-1 -0.6,-0.8 -3.1,-0.7 -0.5,-0.6 -0.4,-1.3 -1.1,-0.6 -2.3,-0.7 -4.2,-3.8 -1.8,-1.2 -2.8,-1.3 0.8,-1.6 0.6,-0.3 1,-0.5 0.6,0.1 3.3,-0.4 0.9,0.1 2.6,0.6 2.4,0.1 0.7,-0.2 2.2,-1.3 1.4,2.7 3.8,3.6 11.5,1 1.9,0.8 4.4,3.6 0.9,0.4 0.9,0.1 3.7,-0.9 h 1.4 l 15.8,2.8 5.4,-2.9 1.4,-2.3 -0.6,-1.7 v -0.6 l 1.1,-3.2 0.8,-4.6 2.2,-2.8 5.4,-1.9 13.8,-1.2 3.1,0.4 2.5,0.8 2.5,-1.1 4.8,-1.1 13.7,2 6.5,-2 3,-2.8 1.7,-5.2 2,-3.2 7,-3.8 4.8,-1.3 3,0.2 1.5,-0.7 1.2,-0.8 0.9,-1.5 0.3,-3.3 -2.5,-4 -4.3,-3.6 -0.3,-1.9 0.3,-2.4 2.6,-9.6 0.6,-6.6 -1.4,-3.7 -15.5,-15.1 -0.3,-2.8 1.7,-1.2 v -1.7 l -3,-9 4.4,0.3 9.3,2.7 4.7,3.6 2.2,3 2.3,1.6 2.3,1.1 2.6,-0.7 10.4,-7.8 6.1,-2.9 1.5,-0.2 1.5,2.2 1,22.4 -1.3,4.4 1.1,5.8 4.6,5.9 4.4,4.1 5.3,3.2 6.2,1 3.3,-0.6 6.1,-3 5.6,-5.4 1.6,-1.9 2.3,-1.9 2.8,0.1 5.4,2.7 0.4,0.9 -0.4,6 1.9,9.1 0.7,1.3 1,0.9 1.6,0.2 2.7,1.4 2.1,2.7 1.2,2.3 2.3,2.6 2.4,3.6 0.3,2.9 -1.4,1.2 -0.9,1.8 1.2,1.7 1.3,0.7 1.4,2.9 1.6,4.6 1.6,21.7 1.1,3.4 16,8.5 3.5,2.6 1.5,0.5 2.5,-2.3 1.2,-1.8 2.1,-1.4 3.4,0.1 3.6,2.1 3.8,3.3 3.1,3.5 1.5,3.2 -0.5,1.1 -3.2,-2 h -1.1 l -0.1,1.1 1.3,3.8 v 1.4 l -0.3,1 -0.9,1.2 -0.7,1.7 -1.2,11.3 0.3,1.7 v 1.7 l -0.6,3.2 -1.1,1.3 0.1,1.1 6.9,-0.4 4.2,0.7 2.8,-0.2 1.8,-0.9 1.8,0.4 2,0.9 3.2,0.5 1,0.7 -0.1,0.6 -0.5,1 0.1,1.2 0.6,1.2 0.1,1.8 0.9,1.6 2.1,0.5 2.6,0.1 2.2,-0.3 1.5,-1.6 1.5,-0.4 2,0.8 h 1.5 l 0.7,0.6 z"
     id="IRN3228"
     name="Hormozgan"
     style="fill:#feb845;fill-opacity:1;stroke:#2e3946;stroke-width:3.914944;stroke-miterlimit:4;stroke-dasharray:none;stroke-opacity:1" /><path
     d="m -411.11476,-266.3792 0.3,0.7 1.7,1.4 1,1.4 0.3,1.3 1.3,0.5 1.9,0.4 0.8,0.9 -0.4,1.2 -11.7,13.9 -1.1,2.5 -0.4,3.5 -1.7,2.6 -0.1,3.6 4.8,13.2 8.5,13.5 2.9,3 3.3,2.6 1.7,2.2 0.1,1.8 -0.3,2.9 0.5,3.4 0.5,1.6 -3.4,-1.9 -1.9,0.6 -2,1.4 -1.9,-0.3 -1.4,-0.8 -1,0.4 -0.7,1.1 v 1.1 l -0.7,1.2 -1.5,0.3 -3.9,-4.1 -2.1,-0.8 -1.5,0.4 -1.5,-0.6 h -0.4 l -0.8,-1.4 -0.7,-0.4 h -1.8 l -0.8,0.3 -0.4,0.6 h -0.4 l 0.4,-1.3 -2.4,-2 -1.1,-1.1 -3.1,-2.1 -1.4,-3.2 -0.4,-4.7 -1.4,-1.2 -3.8,-2 -1.1,-0.2 -0.3,0.2 -5.1,-3.2 -1.5,-7.1 0.4,-6 1.2,-2.4 0.5,-1.9 -0.5,-1.1 -3.5,-3.2 -4.1,-5.6 -2.6,-6.5 -0.3,-5.2 -1.5,-4.9 -3.6,-1.8 -11.7,1.7 -1.5,-0.2 -0.7,-0.6 -1.6,-1.6 -3.3,0.5 -2.5,0.9 -0.6,-2 0.2,-3.4 1.1,-2.4 1.3,-1.7 1.6,-3.1 4.2,-3 2.1,-2.4 3.6,-1 3.7,0.6 2.5,-1.7 -1,-3.3 -2.7,-1.5 -0.1,-1.9 2,-2.5 0.5,-4.5 -3,-7.5 -0.1,-5 -0.8,-1.1 0.7,-7.6 -2.1,-0.8 -3.3,3 -3.5,2.1 -2.1,-0.2 -3.9,2.7 -5.9,10.3 0.7,1.1 0.8,0.3 -0.7,0.8 -3.2,2.5 -1.9,2.7 -2.2,1.7 -7.7,-2.2 -3.4,1 -3.6,1.9 -3.5,1.3 -2.7,-1.5 -1.4,-3.6 0.8,-4.1 2.1,-2.8 1.4,-0.8 0.5,-1 1.9,-0.2 2.8,0.7 0.7,-0.6 0.3,-1.9 0.1,-1.9 0.1,-1 1.1,-0.1 2.3,2 2.3,-0.5 2.1,-1.2 3.2,-0.4 4.5,-3.1 1.1,-1.5 0.3,-1.2 0.2,-1.3 -1,-4 -0.7,-1.4 -1.6,-0.8 -0.7,-0.8 -0.1,-0.7 -0.2,-0.1 -0.4,-1.3 0.4,-0.2 0.8,-1.2 0.9,-2.5 1.8,-3 0.2,-0.7 0.5,-0.5 2.5,-1.6 5.1,-2 2.2,-1.2 1.7,-1.8 2.6,-3.3 1.7,-1.4 2.1,-1.2 3.6,-1.2 1.2,-0.2 0.7,-0.4 2.7,-2.8 7.2,-4.1 3,-3.1 1,-0.7 1.2,-0.3 3.9,0.1 0.7,-0.2 0.5,-0.5 0.6,-0.9 0.7,0.2 1,0.7 3.2,3 8.7,10.4 3.5,3.3 1.5,2 1.1,2.4 -1.8,0.7 -2.8,1.8 -3.2,0.6 -1.7,1 -1.5,1.4 -1,1.9 -0.1,2.3 0.7,1.8 1.3,1.8 2.9,2.8 3,1.3 0.7,0.7 1.6,3.4 0.3,0.8 v 0.9 l -0.3,1 -0.4,0.8 -0.5,0.8 -2.1,1.3 -9.6,1.7 -0.1,0.4 -0.2,0.9 -2.7,1.7 -0.5,0.8 0.2,2.7 1,1.9 3.4,2.7 6.8,3.4 0.6,0.5 0.4,1.6 -0.2,1.2 0.1,1.2 2.5,2 0.8,1.2 1,0.9 h 1.6 l 2.6,-1.2 h 1.2 l 0.6,1.4 0.3,1.8 0.7,0.9 0.8,0.7 0.9,1.4 0.9,0.9 0.7,1.1 2,2.5 1.4,2.4 1.6,1.6 z"
     id="IRN3230"
     name="Ardebil"
     style="fill:#feb845;fill-opacity:1;stroke:#2e3946;stroke-width:3.914944;stroke-miterlimit:4;stroke-dasharray:none;stroke-opacity:1" /><path
     d="m -298.11476,-85.5792 2.4,3 1.3,2.6 0.1,4.4 -4.5,14.5 -1.5,2.1 -1.7,4.9 -0.9,9.7 -0.6,2.4 -1,0.6 -5.3,1.8 -6.4,1 -3.1,2.1 -4.5,1.3 -4.7,-0.7 -2.9,2.4 -0.1,4.1 1.1,1.5 -0.6,1.3 -4.8,2.7 -0.5,3.3 2.8,3.2 2.3,2.1 1.9,0.9 2,-0.2 1.6,0.9 1.5,1.8 0.8,1.8 -0.2,2.6 1.2,3.1 2.4,3 3.4,2.9 13.4,1.2 5.3,2.9 11.9,3.3 -0.6,3.7 -4.9,12 -1.4,2.4 h -3 l -3.2,1.1 -2.9,2.4 -3.3,2.1 -21.5,5.6 -8.2,4.9 -4.3,3.6 -0.5,-0.5 -3.3,-1.8 -0.3,-1.8 v -1.8 l -1.1,-1.1 -1.6,-1.3 -0.9,-1.5 -1.1,-0.7 -1.8,1.3 -1,2 -0.4,1.6 -1.2,0.8 -1.6,-1.2 -1.8,-1.9 -3.8,-2 -1.7,-1.4 -0.5,-1.5 0.5,-1.8 0.9,-1.8 -0.1,-1.7 -1.4,-2.4 -2.3,-2.7 -2.8,-0.9 -2.6,1.4 -2.9,1 -2.3,1.3 -1.7,5.5 -1,1 -4.1,2.6 -1.5,-0.5 -5.8,-0.5 -3.4,-1.3 -2.6,-1.5 -0.7,-1.3 0.3,-1.5 0.4,-1.4 2.1,-4.8 -0.2,-1.4 -0.7,-1.7 0.4,-2 0.8,-1.3 5.4,-4.9 0.9,-1.2 0.2,-1.5 -1,-4 -0.3,-3.5 -0.8,-3.4 -3.7,-7.2 -0.4,-6.6 -0.9,-4 -2.6,-1 -0.7,-1.8 1.8,-0.7 5.3,0.6 2.4,1.1 1.2,-0.3 -0.9,-4.8 0.2,-4.4 1.3,-2.3 0.7,-2.2 -0.6,-3.7 1.3,-2 9.4,-0.5 4.5,0.8 1.2,1.8 -1.1,2.4 0.8,2.8 2,2.5 1.7,1.5 2.3,0.2 1.2,-2.5 -1.1,-6.8 -1.3,-3.1 -2.5,-3 -2.6,-1.3 -5.6,-1.5 -2.3,-1.2 -1.2,-1.1 -0.1,-0.9 0.9,-1.1 1.6,-0.2 2.9,-0.9 2.5,-2.9 -0.6,-2.9 -2.3,-3.9 -1,-4.2 1.6,-2.1 1.4,-0.1 0.2,1.2 -0.1,1.6 1,1.4 1.8,0.4 1.7,-2 0.2,-2.4 -1.2,-1.6 -0.4,-2.3 v -1.5 l 9.1,-0.2 1.5,-3.6 2.2,-1.6 9.1,-2.8 2.7,-1.3 2.8,-0.9 2.4,-0.1 9.3,-4 3,-0.2 1.6,0.2 2.2,0.5 5.2,0.4 5.1,1.4 3,2.7 1.3,0.8 0.5,-0.9 v -1.1 l -2,-2.8 0.7,-1.7 h 2.9 l 2,2.4 v 3.5 l 0.3,2.1 1.5,-0.2 1.4,-3 z"
     id="IRN3231"
     name="Markazi"
     style="fill:#feb845;fill-opacity:1;stroke:#2e3946;stroke-width:3.914944;stroke-miterlimit:4;stroke-dasharray:none;stroke-opacity:1" /><path
     d="m -242.11476,-39.3792 0.7,2.5 -0.1,5.1 -1.4,5.5 -2.3,5.4 -1.7,2.5 -17.4,4.5 -4,-0.2 -11.2,1.3 -4.9,2.1 -2,2 -0.6,1.8 -1.5,12.3 1.1,2.7 1.4,0.8 -11.9,-3.3 -5.3,-2.9 -13.4,-1.2 -3.4,-2.9 -2.4,-3 -1.2,-3.1 0.2,-2.6 -0.8,-1.8 -1.5,-1.8 -1.6,-0.9 -2,0.2 -1.9,-0.9 -2.3,-2.1 -2.8,-3.2 0.5,-3.3 4.8,-2.7 0.6,-1.3 -1.1,-1.5 0.1,-4.1 2.9,-2.4 4.7,0.7 4.5,-1.3 3.1,-2.1 6.4,-1 5.3,-1.8 1,-0.6 0.6,-2.4 0.9,-9.7 1.7,-4.9 1.5,-2.1 v 0.2 l 14.8,0.1 12.5,3.8 z"
     id="IRN3232"
     name="Qom"
     style="fill:#feb845;fill-opacity:1;stroke:#2e3946;stroke-width:3.914944;stroke-miterlimit:4;stroke-dasharray:none;stroke-opacity:1" /><path
     d="m -431.11476,-90.9792 1.7,3.1 2.4,1.5 11.1,0.4 4.5,2.4 4.3,1.1 3.9,-1.4 1.9,-2.6 v -1.1 l 2.4,-1 5.7,0.1 4.3,2.4 1.9,2.5 -1.5,2.4 3.5,2.7 6.6,1.1 1.5,-0.3 7.3,1.8 1.3,0.9 v 1.5 l 0.4,2.3 1.2,1.6 -0.2,2.4 -1.7,2 -1.8,-0.4 -1,-1.4 0.1,-1.6 -0.2,-1.2 -1.4,0.1 -1.6,2.1 1,4.2 2.3,3.9 0.6,2.9 -2.5,2.9 -2.9,0.9 -1.6,0.2 -0.9,1.1 0.1,0.9 1.2,1.1 2.3,1.2 5.6,1.5 2.6,1.3 2.5,3 1.3,3.1 1.1,6.8 -1.2,2.5 -2.3,-0.2 -1.7,-1.5 -2,-2.5 -0.8,-2.8 1.1,-2.4 -1.2,-1.8 -4.5,-0.8 -9.4,0.5 -1.3,2 0.6,3.7 -0.7,2.2 -1.3,2.3 -0.2,4.4 0.9,4.8 -1.2,0.3 -2.4,-1.1 -5.3,-0.6 -1.8,0.7 0.7,1.8 2.6,1 0.9,4 0.4,6.6 3.7,7.2 0.8,3.4 0.3,3.5 1,4 -0.2,1.5 -0.9,1.2 -5.4,4.9 -14.1,-6.1 -3.4,0.4 -2.7,-0.1 -1.4,0.3 -2.7,2.8 -1.5,0.4 -1.9,-0.7 -11.5,-1.4 -22.2,-14.6 -1.1,-1.6 -2.2,-1.4 -1.3,-0.6 0.9,-1.7 1.9,-2.9 5.1,-0.4 5.8,1.2 1.6,-1.3 -0.1,-2.9 0.5,-4.1 -0.5,-2.6 -1,-1.5 -1.2,0.3 -2.3,1 -4.5,4.6 -1.3,-2 -0.7,-2.6 -1.4,-0.7 -1.7,-0.4 -3.8,-2 -2.7,-2.2 -0.5,-2.5 0.8,-1 1.6,-0.6 5.2,-0.6 2.4,-3.6 2.1,-4.6 1.7,-2 0.3,-1.7 -0.1,-1 1.6,-0.8 3.2,-1 1.9,-1 0.5,-1.8 1,-0.2 1.7,4.1 1.1,0.6 1.7,-1.5 1.8,-2.9 1.1,-4.7 -1.5,-5.9 -2.9,-2.9 -2.1,-1.4 -2.6,-3.1 -5.5,-12.4 -3.6,-5.4 0.8,-1.6 2.7,-3 1.2,-0.2 2.4,5.1 1.6,0.5 1.7,-0.8 1.5,-1.4 3.7,-1.3 v -1.6 l -0.6,-1.4 -1.6,-1.9 -0.9,-2.6 1.9,-0.5 z"
     id="IRN3233"
     name="Hamadan"
     style="fill:#feb845;fill-opacity:1;stroke:#2e3946;stroke-width:3.914944;stroke-miterlimit:4;stroke-dasharray:none;stroke-opacity:1" /><path
     d="m -397.21476,-188.2792 7.8,5 5.8,6 2.2,3.6 3,10.6 -4.2,1.5 -5.6,3.7 -2.1,4.9 1.1,4.1 2.7,3.5 1.7,4.2 1.7,2.6 2.6,1.3 1.6,0.1 1,0.5 0.9,1.1 1.4,0.7 0.9,1.8 0.9,3.2 1.6,2.6 1.2,2.7 0.8,6.8 -1.2,1.7 -9.4,2.6 -5.2,3 -3.2,3.5 -0.3,2.6 0.1,0.7 -4.7,-2.2 -3.4,-0.2 -4.7,1.3 -2.9,2.1 -1.8,0.4 -2.3,0.1 -1.6,0.3 -1,0.8 0.1,1.9 6.6,6 3.8,5.6 v 1.1 l -1.9,2.6 -3.9,1.4 -4.3,-1.1 -4.5,-2.4 -11.1,-0.4 -2.4,-1.5 -1.7,-3.1 -0.5,-1.4 -1,-1.8 -0.9,-0.8 -14.3,-8.7 -0.7,-1.7 0.9,-2.3 2,-2.2 1.1,-4.6 0.1,-6.6 -1,-3.6 -1.1,-0.2 -0.1,-0.4 0.4,-0.9 0.1,-0.4 -0.4,-1.6 0.1,-0.5 0.6,-0.5 -0.5,-0.8 -0.6,-1.2 -0.5,-1.4 -0.2,-1.3 -0.3,-0.7 -1.7,-1.8 -0.2,-0.3 -26,-5.2 -1.5,-1.5 -7.2,-16 -0.3,-2.1 v -3.2 l 1,-2 7.8,-8 2.2,-3.6 1.6,-1.1 3.4,-1.7 2.8,-3 1.8,-1.1 1.8,-0.8 16.3,-1.9 4.9,0.8 3.3,-0.6 12.4,1.3 3.9,-1.5 1.8,-1.4 0.6,-0.4 1.5,-0.4 2.1,0.8 3.9,4.1 1.5,-0.3 0.7,-1.2 v -1.1 l 0.7,-1.1 1,-0.4 1.4,0.8 1.9,0.3 2,-1.4 1.9,-0.6 z"
     id="IRN3234"
     name="Zanjan"
     style="fill:#feb845;fill-opacity:1;stroke:#2e3946;stroke-width:3.914944;stroke-miterlimit:4;stroke-dasharray:none;stroke-opacity:1" /><path
     d="m -323.61476,-153.8792 13.7,11.7 2.9,1.5 8.4,6.4 0.6,1.8 v 1.3 l -12.3,-1.3 -5.8,0.4 -1.5,2.3 2.6,3.6 1.9,1.7 3.7,1.1 2.4,2 -1.7,5.6 -2.4,5.1 -0.7,2.4 -1.7,1.7 -10.5,5.1 -2.8,2.8 -0.7,2.5 0.4,1.9 1.4,3 1.1,1.8 -1.6,-0.2 -3,0.2 -9.3,4 -2.4,0.1 -2.8,0.9 -2.7,1.3 -9.1,2.8 -2.2,1.6 -1.5,3.6 -9.1,0.2 -1.3,-0.9 -7.3,-1.8 -1.5,0.3 -6.6,-1.1 -3.5,-2.7 1.5,-2.4 -1.9,-2.5 -4.3,-2.4 -5.7,-0.1 -2.4,1 -3.8,-5.6 -6.6,-6 -0.1,-1.9 1,-0.8 1.6,-0.3 2.3,-0.1 1.8,-0.4 2.9,-2.1 4.7,-1.3 3.4,0.2 4.7,2.2 -0.1,-0.7 0.3,-2.6 3.2,-3.5 5.2,-3 9.4,-2.6 1.2,-1.7 -0.8,-6.8 -1.2,-2.7 -1.6,-2.6 -0.9,-3.2 -0.9,-1.8 -1.4,-0.7 -0.9,-1.1 -1,-0.5 -1.6,-0.1 -2.6,-1.3 -1.7,-2.6 -1.7,-4.2 -2.7,-3.5 -1.1,-4.1 2.1,-4.9 5.6,-3.7 4.2,-1.5 4.9,2.4 0.1,1.1 0.7,2 2.9,3.7 3.1,3 7.1,2.1 2.7,-0.1 1.6,0.3 1.1,0.8 4.7,0.9 2.6,-0.4 9.7,-5.3 1.1,-0.4 1.1,-0.6 4.3,-0.9 z"
     id="IRN3235"
     name="Qazvin"
     style="fill:#feb845;fill-opacity:1;stroke:#2e3946;stroke-width:3.914944;stroke-miterlimit:4;stroke-dasharray:none;stroke-opacity:1" /><path
     d="m -572.31476,-305.2792 -6,6.5 -1.2,2.7 -1.5,7.1 0.7,3.8 1.4,3.5 -0.1,3.3 -1.9,3.5 -8.9,9.2 -2.9,4.9 -0.6,2.9 0.7,2.2 3.3,4.4 h 0.4 v 0.9 l 0.7,0.9 0.3,0.5 0.3,1.2 0.1,0.7 -0.3,0.7 -0.1,2.1 1.8,17.7 1.1,1.4 0.3,0.8 0.4,4 -0.2,0.3 -1,0.7 -0.2,0.7 0.4,1 0.7,1.4 0.3,1.1 3.5,4.2 1.3,3 -0.6,8.1 0.7,3.5 1.9,2.9 15.1,10 6.7,1.2 5.6,0.1 7.1,6.5 0.9,1.7 6.4,3.7 2.3,2 2.4,1 1.5,-1 0.8,-1.3 0.2,-0.6 0.8,-1.8 1.7,-2.2 3.1,-2 2.5,-0.5 1.3,0.1 1.4,-1.3 2.2,-1.5 2.4,0.4 1.6,1.7 2,1.3 2.7,0.6 1.6,1.4 0.2,1.3 -0.6,1 2,6 v 4.3 l 1.8,2.7 5.1,0.7 12.2,-1.4 7.2,16 -1.3,0.4 -1.5,1 -0.2,1.2 0.4,1.1 -0.3,1 -0.9,1.8 -2.2,2.5 -3.9,1.7 -5.8,-0.5 -5.4,-1.5 -2,-1.4 -0.9,-0.9 -1,-0.9 -0.7,-1 -0.4,-0.8 -0.6,-0.5 -26.8,2.5 -13,-1.8 -4.5,1.7 -1.1,1.5 -0.1,3.1 -2.5,3.8 -8.4,2.7 -1.6,1.7 -0.6,1.1 -1.1,1.1 -0.7,3.2 -2.9,3.2 -0.8,2.1 -2.1,2 -1.7,1.1 -1.2,-0.4 h -1.3 l -1.8,0.9 -0.9,0.3 -1,0.7 -1.2,0.4 -1.1,-0.2 -0.9,-0.9 -0.4,-1.1 0.4,-1.3 0.6,-1.3 0.6,-1 0.2,-1.3 -0.6,-1.3 -1.6,-2.1 -0.3,-1.3 0.1,-3 -0.2,-1.2 -0.8,-0.8 -0.9,-0.7 -0.3,-0.8 1.2,-0.8 -0.9,-1.3 -0.4,-1.1 -0.1,-2.7 -0.3,-1.5 -0.5,-1.6 -0.9,-1.2 -1.3,-0.1 -2.9,1.2 -1.5,0.1 -1.4,-0.7 -0.6,-0.7 -0.6,-2 -1.2,-1.6 v -0.9 l -0.7,-0.7 -1,-0.9 -0.7,-1 0.1,-1 1,-0.5 0.1,-1.4 0.5,-2.2 1,-2.3 0.1,-1.2 -0.5,-1.4 -1.3,-2.3 -0.8,-1.1 -0.8,-0.4 -0.7,-0.1 -0.6,-0.1 -0.5,-0.4 -1.2,-1.2 -0.7,-0.1 -1.6,0.1 -1.4,-0.3 -1,-0.7 -0.4,-1.1 0.6,-1.6 1.8,-2.3 0.7,-1.1 0.3,-1.6 -0.3,-1.4 -0.4,-1.1 -0.3,-1.1 0.3,-1.8 0.5,-0.7 0.1,-0.7 -0.3,-0.6 -1.2,-0.6 -0.6,-0.6 -0.3,-0.2 h -0.5 l -1,0.3 -0.5,-0.1 -0.3,-0.3 -0.4,-1.4 -1.1,-0.6 -0.3,-0.4 -0.5,-1.2 v -0.6 l 0.7,-1.9 0.4,-1.2 -0.4,-1.1 -0.4,-1.1 -0.2,-1.3 0.3,-1.2 0.7,-0.5 0.7,-0.5 0.6,-0.8 0.2,-2.1 -1.2,-1.3 -3,-1.9 -0.4,-0.9 -0.3,-0.9 -0.5,-0.6 -1.9,0.2 -0.4,-0.5 -0.8,-1.9 -0.8,-0.6 -1.9,-0.1 -0.7,-0.4 -0.3,-1.1 0.7,-2 -0.5,-2.4 0.1,-1.6 0.3,-1.6 0.5,-1.3 -0.2,-1.1 -1.2,-0.9 -1,-1.2 0.2,-2 0.4,-0.6 1.8,-1.4 0.6,-0.9 -0.2,-0.6 -1.9,-2.3 -1.2,-1.1 -1.5,-0.7 -1.4,0.2 -0.7,0.3 -0.8,0.3 h -0.7 l -0.4,-0.8 0.3,-1.4 -0.1,-0.4 -0.4,-0.3 -0.7,0.2 -0.4,-0.1 -0.5,-0.7 -0.5,-1.6 -0.3,-0.6 -0.6,-0.4 -1.8,-0.9 -0.7,-0.2 -3.3,0.4 -1.8,-0.3 -0.9,-1.4 0.2,-0.8 1,-1.3 -0.1,-0.9 -0.2,-0.9 0.1,-0.8 0.3,-0.8 0.9,-1.8 1.3,-1.4 0.4,-1 0.4,-1.4 0.5,-0.9 0.7,-0.5 1,-0.5 0.3,-0.4 -0.4,-1.2 v -0.6 l 0.5,-0.4 0.9,-0.4 0.4,-0.5 0.3,-0.9 0.3,-1.3 0.2,-1.3 -0.2,-3.2 1.4,-1.6 1.9,-1.5 1.2,-1.7 -0.1,-1 -0.3,-1.1 -0.7,-0.9 -0.7,-0.6 -0.8,-0.3 -0.7,0.1 -1.7,1 -2.6,-0.4 -1.2,-0.7 -0.2,-0.6 0.2,-1.7 -0.1,-1.7 v -0.7 l 0.6,-2.7 0.1,-1.1 -0.5,-3.4 0.3,-2.6 v -1.4 l -0.4,-1.1 -0.8,-0.7 -0.9,-0.3 -0.6,-0.3 0.1,-0.4 0.5,-0.5 0.2,-0.5 -0.3,-1.2 -0.2,-0.7 -0.1,-0.9 0.2,-1.3 1.4,-4.8 -0.3,-2 -2.7,-1.3 -0.8,-0.8 -0.7,-1 -0.9,-2.5 v -1.2 l -0.9,-0.7 -0.3,-0.5 -0.2,-1 -0.5,-1 0.8,-1.2 0.8,-0.7 0.5,-0.8 -0.5,-2.6 0.3,-1.1 1,-2 -0.4,-1.6 -2,-1.5 -2.3,-1.2 -1.4,-1 v -0.6 l 0.3,-1.2 v -0.6 l -0.6,-1.3 -0.2,-1.2 0.1,-0.9 -0.6,-1.3 -0.3,-1.4 -0.2,-0.7 -1.4,-1.6 -0.3,-0.8 0.6,-0.8 1,-0.7 0.8,-0.3 h 0.8 l 1.2,0.1 1.2,-0.1 2.8,-0.7 1.2,0.1 3.6,1.8 1.3,0.1 1.1,-0.3 2.7,-1.2 1,-0.7 0.9,-1.4 v -1.2 l -0.2,-1.2 0.3,-1.5 0.5,-0.8 v -0.8 l -0.3,-1.8 0.1,-1.1 0.3,-0.9 1.7,-3.5 0.3,-0.9 0.1,-1 -0.2,-2.2 0.2,-0.8 5.5,-4.5 1.3,-0.4 0.8,0.6 1.3,2.1 0.8,0.8 3,1.4 1,0.9 4.3,3.1 0.1,0.1 0.9,0.6 1.1,0.2 h 1.2 l -0.3,0.5 1.1,0.8 0.6,1.5 1.5,6.4 0.7,1.4 1,0.9 -0.4,0.9 0.2,0.4 1.3,1 1.3,0.1 0.4,0.8 1.9,1.3 0.9,1.5 0.5,0.7 0.5,0.2 0.4,0.7 1.3,2.8 0.8,1.4 0.5,3.3 0.3,1 1.4,-0.4 5.4,1.8 0.9,-0.6 0.5,0.1 0.2,0.4 -0.2,1.2 0.5,0.2 0.7,0.2 0.7,0.4 0.3,0.7 -0.4,1 0.3,0.7 1,0.6 0.4,0.5 0.7,2 0.2,0.6 0.5,0.3 1.2,0.6 0.3,0.4 -0.1,0.7 -0.4,1.1 0.1,0.7 0.6,0.8 1.1,0.7 1.2,0.6 z"
     id="IRN3237"
     name="West Azarbaijan"
     style="fill:#feb845;fill-opacity:1;stroke:#2e3946;stroke-width:3.914944;stroke-miterlimit:4;stroke-dasharray:none;stroke-opacity:1" /><path
     d="m -419.21476,-189.6792 -0.6,0.4 -1.8,1.4 -3.9,1.5 -12.4,-1.3 -3.3,0.6 -4.9,-0.8 -16.3,1.9 -1.8,0.8 -1.8,1.1 -2.8,3 -3.4,1.7 -1.6,1.1 -2.2,3.6 -7.8,8 -1,2 v 3.2 l 0.3,2.1 -12.2,1.4 -5.1,-0.7 -1.8,-2.7 v -4.3 l -2,-6 0.6,-1 -0.2,-1.3 -1.6,-1.4 -2.7,-0.6 -2,-1.3 -1.6,-1.7 -2.4,-0.4 -2.2,1.5 -1.4,1.3 -1.3,-0.1 -2.5,0.5 -3.1,2 -1.7,2.2 -0.8,1.8 -0.2,0.6 -0.8,1.3 -1.5,1 -2.4,-1 -2.3,-2 -6.4,-3.7 -0.9,-1.7 -7.1,-6.5 -5.6,-0.1 -6.7,-1.2 -15.1,-10 -1.9,-2.9 -0.7,-3.5 0.6,-8.1 -1.3,-3 -3.5,-4.2 -0.3,-1.1 -0.7,-1.4 -0.4,-1 0.2,-0.7 1,-0.7 0.2,-0.3 -0.4,-4 -0.3,-0.8 -1.1,-1.4 -1.8,-17.7 0.1,-2.1 0.3,-0.7 -0.1,-0.7 -0.3,-1.2 -0.3,-0.5 -0.7,-0.9 v -0.9 h -0.4 l -3.3,-4.4 -0.7,-2.2 0.6,-2.9 2.9,-4.9 8.9,-9.2 1.9,-3.5 0.1,-3.3 -1.4,-3.5 -0.7,-3.8 1.5,-7.1 1.2,-2.7 6,-6.5 0.8,0.3 1.1,0.6 0.6,0.1 1.4,0.1 3,0.7 h 4.6 l 3.8,1.6 10.9,2.3 3.4,1.5 3,0.8 4,-0.6 0.9,-0.4 2.7,-1.9 1,-0.5 0.7,-0.2 2,-0.1 1.2,-0.4 0.6,-0.1 0.7,0.2 5.4,2.4 0.9,0.3 0.9,-0.1 1.2,-0.4 0.8,-0.6 0.8,-0.6 0.7,-0.8 0.6,-1 1.5,-3 0.6,-0.9 1,-0.8 3,-1.5 0.8,-0.8 0.9,-2.1 0.6,-0.9 1.3,-0.8 0.7,-0.8 1.3,-2.3 0.7,-0.8 0.8,-0.7 0.9,-0.4 h 0.8 l 1.4,0.6 0.8,0.2 0.6,-0.1 3.1,-1.7 0.4,1.3 0.2,0.1 0.1,0.7 0.7,0.8 1.6,0.8 0.7,1.4 1,4 -0.2,1.3 -0.3,1.2 -1.1,1.5 -4.5,3.1 -3.2,0.4 -2.1,1.2 -2.3,0.5 -2.3,-2 -1.1,0.1 -0.1,1 -0.1,1.9 -0.3,1.9 -0.7,0.6 -2.8,-0.7 -1.9,0.2 -0.5,1 -1.4,0.8 -2.1,2.8 -0.8,4.1 1.4,3.6 2.7,1.5 3.5,-1.3 3.6,-1.9 3.4,-1 7.7,2.2 2.2,-1.7 1.9,-2.7 3.2,-2.5 0.7,-0.8 -0.8,-0.3 -0.7,-1.1 5.9,-10.3 3.9,-2.7 2.1,0.2 3.5,-2.1 3.3,-3 2.1,0.8 -0.7,7.6 0.8,1.1 0.1,5 3,7.5 -0.5,4.5 -2,2.5 0.1,1.9 2.7,1.5 1,3.3 -2.5,1.7 -3.7,-0.6 -3.6,1 -2.1,2.4 -4.2,3 -1.6,3.1 -1.3,1.7 -1.1,2.4 -0.2,3.4 0.6,2 2.5,-0.9 3.3,-0.5 1.6,1.6 0.7,0.6 1.5,0.2 11.7,-1.7 3.6,1.8 1.5,4.9 0.3,5.2 2.6,6.5 4.1,5.6 3.5,3.2 0.5,1.1 -0.5,1.9 -1.2,2.4 -0.4,6 1.5,7.1 5.1,3.2 0.3,-0.2 1.1,0.2 3.8,2 1.4,1.2 0.4,4.7 1.4,3.2 3.1,2.1 1.1,1.1 2.4,2 -0.4,1.3 h 0.4 l 0.4,-0.6 0.8,-0.3 h 1.8 l 0.7,0.4 0.8,1.4 h 0.4 z"
     id="IRN3238"
     name="East Azarbaijan"
     style="fill:#feb845;fill-opacity:1;stroke:#2e3946;stroke-width:3.914944;stroke-miterlimit:4;stroke-dasharray:none;stroke-opacity:1" /><path
     d="m -450.51476,-44.1792 0.1,1 -0.3,1.7 -1.7,2 -2.1,4.6 -2.4,3.6 -5.2,0.6 -1.6,0.6 -0.8,1 0.5,2.5 2.7,2.2 3.8,2 1.7,0.4 1.4,0.7 0.7,2.6 1.3,2 4.5,-4.6 2.3,-1 1.2,-0.3 1,1.5 0.5,2.6 -0.5,4.1 0.1,2.9 -1.6,1.3 -5.8,-1.2 -5.1,0.4 -1.9,2.9 -0.9,1.7 -3.6,-0.5 -1.5,0.5 -0.9,0.6 -0.2,1.4 0.5,3.4 -0.3,3.5 -2.5,1.3 -3.7,0.2 -3,1.5 -0.3,0.9 0.1,0.6 0.7,0.7 0.2,0.6 0.1,0.7 -0.1,1.1 v 0.7 l 0.2,0.5 -0.7,1.2 -0.9,0.6 -0.9,-0.2 -1.7,-0.2 -8.3,1.9 v 2 l 1.4,2.1 0.8,1.6 -0.8,4 -1,2.1 -8.1,-0.4 -8.8,2.3 -6.1,-0.5 -13,-4.2 -3.8,-3.3 -3.4,-2.1 -4.2,-1 -4.2,-0.3 -7.7,-3.2 -8,1 -3.1,-0.1 -0.9,1.2 0.7,2.3 -0.6,4 -1.9,6.3 -1.1,9 -1.2,0.9 -0.2,-0.4 -2.4,-1.8 -0.8,-0.8 -0.7,-1 -0.5,-1 -0.4,-1.1 -0.2,-1.3 -0.4,-1 -0.7,-0.7 -0.8,-0.7 -0.7,-0.8 -4.6,-8.4 -0.3,-0.1 -1.5,0.2 -1.4,-0.1 -1.1,-0.7 -1.1,-1.5 1.1,-0.5 0.9,-0.8 0.8,-1.7 0.5,-1.6 0.5,-1.4 1.3,-1.1 0.8,-0.8 2.1,-1.7 0.5,-0.7 v -0.7 l -0.7,-1.1 -0.2,-0.7 0.1,-0.6 0.7,-1.2 0.2,-0.5 0.7,-3 0.1,-1.6 -0.2,-1.4 -0.8,-1.2 -1.1,-0.7 h -1.2 l -1,0.8 -1,-0.7 -0.6,-1.3 -1.6,-5.2 0.5,-0.8 2.7,-0.6 0.7,-0.8 0.6,-0.9 v -1.9 l -0.4,-2.5 0.2,-1.8 2,0.6 1.8,1 1.6,0.4 3.6,0.2 1.1,0.5 0.3,-0.1 0.3,-1.1 0.1,-0.7 -0.2,-0.4 -0.6,-0.8 -0.1,-1 -0.1,-1.2 -0.1,-1.2 -0.8,-1.1 -0.3,-1.2 -0.4,-0.5 -0.9,-0.6 -0.7,-0.9 0.4,-1 1.4,-1.6 0.2,-0.8 -0.2,-1.2 0.2,-0.8 0.5,-0.7 0.7,-0.3 1.4,-0.1 1.5,-1 0.2,-1.6 -0.1,-1.6 0.4,-1.2 h 1.2 l 1.5,0.8 1.4,0.5 0.8,-1.1 0.4,-1.5 0.4,-1.2 0.2,-1.2 -0.5,-1.6 -0.2,-0.9 v -0.8 l 0.3,-0.7 0.5,-0.6 1.1,-0.2 0.4,-0.4 -0.1,-1.1 0.7,-1.2 0.4,-0.1 0.8,0.2 1.1,0.7 0.5,0.3 0.7,-0.1 1.5,0.7 0.8,-0.2 0.8,-0.7 1.4,-0.9 h 0.5 l 0.9,0.2 1.3,-0.4 0.7,-0.2 0.5,-0.3 0.4,-0.7 -1,-1.3 0.7,-1.8 1.1,-1.9 0.2,-1.6 -0.8,-0.7 h -2 l -0.7,-0.5 -0.2,-1 0.5,-0.8 0.6,-0.8 0.3,-0.6 1.4,0.5 9.9,7.7 12.4,17.1 2.2,1.5 1.2,-0.1 0.2,1.3 -0.4,1.9 v 2.5 l 1.8,1.9 3.1,-0.4 4.6,0.6 3.5,-0.5 2,-1.1 0.2,-2.1 1.1,-1.3 1.6,-0.3 1.1,-1.3 0.1,-1.8 0.6,-1.4 2.2,-0.7 3.1,-3.3 3.2,-0.3 2,0.2 1.1,-0.6 0.3,-4.1 0.5,-1.3 7.4,-0.5 1.8,-1.6 0.2,-2.1 -0.9,-1.9 0.5,-1.2 1.5,0.1 2.1,1.8 5.9,2.7 7.9,8.9 2.2,0.4 z"
     id="IRN3239"
     name="Kermanshah"
     style="fill:#feb845;fill-opacity:1;stroke:#2e3946;stroke-width:3.914944;stroke-miterlimit:4;stroke-dasharray:none;stroke-opacity:1" /><path
     d="m -309.61476,-174.4792 -0.5,1.9 -1.8,2.5 -2.7,1.4 -2.1,2.1 -1.1,5.3 -3.2,5.7 -2.6,1.7 -7.1,-0.6 -4.3,0.9 -1.1,0.6 -1.1,0.4 -9.7,5.3 -2.6,0.4 -4.7,-0.9 -1.1,-0.8 -1.6,-0.3 -2.7,0.1 -7.1,-2.1 -3.1,-3 -2.9,-3.7 -0.7,-2 -0.1,-1.1 -4.9,-2.4 -3,-10.6 -2.2,-3.6 -5.8,-6 -7.8,-5 -0.5,-1.6 -0.5,-3.4 0.3,-2.9 -0.1,-1.8 -1.7,-2.2 -3.3,-2.6 -2.9,-3 -8.5,-13.5 -4.8,-13.2 0.1,-3.6 1.7,-2.6 0.4,-3.5 1.1,-2.5 11.7,-13.9 0.4,-1.2 -0.8,-0.9 -1.9,-0.4 -1.3,-0.5 -0.3,-1.3 -1,-1.4 -1.7,-1.4 -0.3,-0.7 2.4,0.2 1.2,-0.4 1.4,-0.6 1.3,-0.8 1.1,-1 1.1,-0.7 1.7,0.1 3.3,0.7 0.2,5.8 -0.6,1.9 0.3,1.4 0.1,3.5 1,2.4 0.7,8.1 2.2,7.6 -0.4,1.3 -0.1,1.5 0.2,1.4 0.4,1 1.9,3 v 0.6 l -0.3,1.1 0.6,2.6 1.1,2.4 2.6,4 3.5,3.6 3.7,2.7 8.4,4.4 3.9,1.3 19.8,2.7 2.2,-0.4 1.7,-0.7 1.7,-0.3 1.8,1 -0.5,0.1 -0.8,-0.3 -0.4,0.6 4.3,1.7 6.7,1.5 2.4,1 1.7,1.5 -0.2,2.4 0.4,0.9 0.7,2.3 0.5,1 0.7,1.1 1.2,3.5 1.6,2.6 1.8,1.7 3.7,2.9 2.6,3.1 0.8,0.4 1,0.3 z"
     id="IRN3240"
     name="Gilan"
     style="fill:#feb845;fill-opacity:1;stroke:#2e3946;stroke-width:3.914944;stroke-miterlimit:4;stroke-dasharray:none;stroke-opacity:1" /><path
     d="m -431.11476,-90.9792 -7.6,-4.2 -1.9,0.5 0.9,2.6 1.6,1.9 0.6,1.4 v 1.6 l -3.7,1.3 -1.5,1.4 -1.7,0.8 -1.6,-0.5 -2.4,-5.1 -1.2,0.2 -2.7,3 -0.8,1.6 3.6,5.4 5.5,12.4 2.6,3.1 2.1,1.4 2.9,2.9 1.5,5.9 -1.1,4.7 -1.8,2.9 -1.7,1.5 -1.1,-0.6 -1.7,-4.1 -1,0.2 -0.5,1.8 -1.9,1 -3.2,1 -1.6,0.8 -1.6,0.1 -2.2,-0.4 -7.9,-8.9 -5.9,-2.7 -2.1,-1.8 -1.5,-0.1 -0.5,1.2 0.9,1.9 -0.2,2.1 -1.8,1.6 -7.4,0.5 -0.5,1.3 -0.3,4.1 -1.1,0.6 -2,-0.2 -3.2,0.3 -3.1,3.3 -2.2,0.7 -0.6,1.4 -0.1,1.8 -1.1,1.3 -1.6,0.3 -1.1,1.3 -0.2,2.1 -2,1.1 -3.5,0.5 -4.6,-0.6 -3.1,0.4 -1.8,-1.9 v -2.5 l 0.4,-1.9 -0.2,-1.3 -1.2,0.1 -2.2,-1.5 -12.4,-17.1 -9.9,-7.7 -1.4,-0.5 0.1,-0.3 -0.4,-1.8 -1.2,-1.5 -2.9,-2.5 -3.3,-5.3 -0.6,-1.9 0.1,-1.1 0.7,-0.7 0.2,-0.5 -0.8,-1.8 -0.5,-1.2 0.5,-0.1 1.6,0.5 0.1,-0.9 -0.5,-2.5 v -1 l 0.2,-1.1 0.4,-1 0.7,-0.8 1,-0.3 3.7,0.1 1,-0.3 2.6,-1.3 2,0.1 1.1,-0.2 0.8,-0.7 0.7,-1.1 1.6,-1 0.8,-0.7 0.6,-1.1 0.1,-1 -0.4,-0.8 -0.8,-0.6 -1.1,-0.1 -1,0.4 -0.8,0.6 -1,0.4 -2.2,0.5 h -1.1 l -1.1,-0.4 -0.7,-0.7 -0.2,-0.5 -0.3,-1.3 -2.2,-0.9 h -0.9 l -0.8,0.3 -1,0.6 -1,0.3 -3.3,-0.1 -1.7,0.6 -1.6,-0.3 -1.2,1.1 -1,0.5 -1.1,0.1 -0.8,-0.6 -0.6,-0.1 -1.9,0.6 -1,-0.3 -0.6,-0.8 -1.3,-3.3 -2.4,-3.4 -1.6,-1.5 -1.4,-0.2 -0.6,-0.5 -2,-1.7 -1.9,-0.8 1.7,-1.1 2.1,-2 0.8,-2.1 2.9,-3.2 0.7,-3.2 1.1,-1.1 0.6,-1.1 1.6,-1.7 8.4,-2.7 2.5,-3.8 0.1,-3.1 1.1,-1.5 4.5,-1.7 13,1.8 26.8,-2.5 0.6,0.5 0.4,0.8 0.7,1 1,0.9 0.9,0.9 2,1.4 5.4,1.5 5.8,0.5 3.9,-1.7 2.2,-2.5 0.9,-1.8 0.3,-1 -0.4,-1.1 0.2,-1.2 1.5,-1 1.3,-0.4 1.5,1.5 26,5.2 0.2,0.3 1.7,1.8 0.3,0.7 0.2,1.3 0.5,1.4 0.6,1.2 0.5,0.8 -0.6,0.5 -0.1,0.5 0.4,1.6 -0.1,0.4 -0.4,0.9 0.1,0.4 1.1,0.2 1,3.6 -0.1,6.6 -1.1,4.6 -2,2.2 -0.9,2.3 0.7,1.7 14.3,8.7 0.9,0.8 1,1.8 z"
     id="IRN3241"
     name="Kordestan"
     style="fill:#feb845;fill-opacity:1;stroke:#2e3946;stroke-width:3.914944;stroke-miterlimit:4;stroke-dasharray:none;stroke-opacity:1" /><path
     d="m 202.78524,10.4208 0.6,5.5 1.5,9.5 -0.1,2.4 -1.6,3.6 -0.4,2.1 1.2,4.5 3.3,3.2 4.2,1.7 4,0.3 3.8,-0.2 2,0.1 1.8,0.5 0.8,0.4 0.8,0.8 0.5,0.9 -0.5,0.8 -0.7,0.3 -2.5,0.2 -0.9,0.6 -0.1,0.9 0.2,2.1 -0.3,1.2 -0.5,0.7 -1.7,1.1 -1.5,1.3 -4.5,6.1 -5.3,7.2 -0.3,0.9 0.1,4.8 0.7,4 5.1,17.1 4,13.6 4,15.1 -0.1,4.9 -0.7,4.9 -0.3,1 -1.4,1.8 -0.4,0.9 0.2,0.4 0.8,0.6 -0.5,1.3 0.1,0.6 0.5,1.3 0.1,1.3 -0.4,3.8 0.1,2.9 0.7,5.7 -0.6,4.5 0.1,1.4 0.8,2.9 0.6,5.7 1.7,0.7 14,2.1 0.9,3.5 -0.7,7.3 -3.3,8 -2.5,8.8 -1.1,15.8 0.2,4.6 2.7,11.6 -0.1,1.9 -0.8,1.2 -1.8,0.7 -7,0.3 -4.2,-3.7 -8.2,-11.6 -6.3,-4.7 -4.8,-1.3 -1.2,-0.9 -1.8,-2 -2.9,-0.5 -38.7,11 -1.7,0.8 -20.6,-30.1 -7.4,-5.5 -58.9,-26.7 0.8,-1.2 2.7,-6.9 5.3,-8.3 1.9,-5.3 6.9,-9.3 0.8,-2.8 0.5,-3 1.2,-3.4 0.1,-3.4 -2.1,-3.4 -1.6,-3.4 v -1.9 l -1.6,-1.7 -0.7,-1.4 -0.4,-1.4 0.9,-2.2 1.4,-2.3 0.4,-1.9 -0.3,-4.7 1.3,-1.5 2.2,-3.8 1.7,-7.3 7.2,-10.9 16.3,-10.8 2.3,-2.4 2.5,-4.1 0.4,-1.8 1.5,-2.9 -7.8,-5.7 -0.5,-1.8 -0.5,-1.5 -1.2,-0.8 -1.5,-1.4 -0.2,-2.7 0.8,-3.5 1.3,-3.2 0.2,-2.5 -0.6,-2.7 1.1,-4.6 0.5,-4.2 -2,-3.2 -0.3,-1.7 0.8,-1.8 2.7,-1 8.3,1 5.3,1.7 1.4,-1.1 1.5,-1.6 15.3,-2.3 4.8,-2.8 5.4,-2 2.8,2.4 5,8.3 6.8,2.4 32.2,-0.1 z"
     id="IRN3244"
     name="South Khorasan"
     style="fill:#feb845;fill-opacity:1;stroke:#2e3946;stroke-width:3.914944;stroke-miterlimit:4;stroke-dasharray:none;stroke-opacity:1" /><path
     d="m 202.78524,10.4208 -4,0.7 -32.2,0.1 -6.8,-2.4 -5,-8.3 -2.8,-2.4 -5.4,2 -4.8,2.8 -15.3,2.3 -1.5,1.6 -1.4,1.1 -5.3,-1.7 -8.3,-1 -2.7,1 -0.8,1.8 0.3,1.7 2,3.2 -0.5,4.2 -1.1,4.6 0.6,2.7 -0.2,2.5 -1.3,3.2 -0.8,3.5 0.2,2.7 1.5,1.4 1.2,0.8 0.5,1.5 0.5,1.8 7.8,5.7 -1.5,2.9 -0.4,1.8 -2.5,4.1 -2.3,2.4 -16.3,10.8 -7.2,10.9 -1.7,7.3 -2.2,3.8 -1.3,1.5 -1.3,-1 -4.2,-6.5 -4.4,-2.8 -3.3,-1.5 -1.3,-1 -4.4,-2.5 -3.3,-7.7 -3.9,-26.1 -2,-4 -2.3,-2.8 -13.2,3.1 -10.2,-1.3 -2.5,-3.8 -3.2,-18 0.4,-10.5 6.6,-19.7 3.5,-6.3 20.5,-14.6 5,-4.9 0.7,-4 -1.8,-4 -15.1,-11.6 -5.7,-1.5 -13,3.4 -20.6,9.7 -21.1,5.6 8.3,-10.3 6.7,-6.2 5.8,-3.5 11,-4.1 1.5,-1.2 2.2,-5.1 9,-15.5 0.8,-4.5 -3.4,-3.9 -12.2,-10 -1.5,-3.6 -1.6,-7.7 -1,-12.1 0.8,-7 2.1,-4 1.3,-6 -1.2,-5 -2.1,-1.3 -1.7,-0.1 -1,0.3 0.2,-1.7 -0.4,-2.3 0.4,-3 3,-3.9 12.4,-10.2 8.3,0.4 34.2,19.1 14.3,2.2 3.9,-1 2,-1.8 1.7,-5.1 -0.4,-2 -1.9,-1.1 -0.6,-1 0.3,-1.8 3.1,-3.3 -0.2,-1.5 -1.7,-0.8 -1.1,-1.6 -0.4,-1.7 -0.7,0.3 -0.7,2 -1.4,0.2 -1,-1.8 -1.4,-1.6 -2.5,-1.8 -0.3,-2.2 2.1,-2.6 3.1,-9.2 1.9,-2.6 0.5,-2 0.1,-1.3 0.4,-1.1 1.4,-1.7 1.1,-2.1 -0.3,-2.6 -1.4,-2.9 -4.7,-4.4 -1.2,-2.7 -0.6,-2.2 -1,-1.3 -23.2,-1.1 -2,-1.4 0.9,-2.2 0.6,-2.5 v -2.8 l 1.9,-2 6.3,-3.9 1,-0.2 0.4,0.1 0.4,0.4 0.5,1 0.3,0.4 0.8,0.3 h 0.8 l 0.9,-0.3 h 0.8 l 1.8,0.5 8.1,3.9 3.4,0.8 1.8,0.1 0.8,0.2 0.9,0.4 0.4,0.5 -0.1,1.4 0.8,1.6 0.2,0.4 0.1,1.2 v 0.9 l 0.3,0.8 0.9,0.7 0.8,0.4 4.1,0.6 0.6,0.3 1.4,0.9 0.7,0.2 4.7,-0.4 0.9,-0.5 0.7,-1 0.5,-1.1 0.6,-1 0.8,-0.5 1,-0.1 0.8,0.4 2.6,2.3 2.3,1 1.1,0.1 1.2,-0.1 0.4,-0.3 0.7,-0.7 h 0.6 l 1.1,0.3 1.1,-0.3 0.7,-0.8 0.1,-1 0.3,-0.5 3.1,1.8 4,0.9 2.1,0.9 0.7,0.6 0.7,0.2 1.5,0.2 0.5,0.3 1.7,1.8 6.9,5 1.1,0.1 2.9,-1.3 1.2,0.3 1.1,1 1,1.3 0.2,0.9 -0.2,1.5 0.5,1.2 -0.5,1.2 -0.2,0.8 0.1,1.3 1,4.5 0.6,0.9 3.3,2.7 1.3,1.5 -0.4,0.7 -0.2,1 0.2,0.5 0.8,0.2 0.8,0.7 0.8,0.2 1.7,-0.6 0.7,0.1 0.9,0.9 0.4,1.1 0.2,1.2 0.4,1.1 0.7,0.5 0.5,-0.1 0.3,-0.4 0.6,-0.9 0.5,-0.3 h 0.6 l 7.4,2.5 3.4,2.8 1.9,1.2 4.2,0.7 2,0.9 1.5,2 2,4.2 2.3,3.6 5.5,6.7 1.1,1.8 1.5,4 1.1,1.8 1.7,1 26.5,-0.5 11.4,-0.2 2.6,0.5 2.1,0.2 0.4,2.2 0.6,1.6 0.1,0.8 -0.1,0.8 -0.2,0.7 -0.6,1.1 -0.2,0.7 0.1,0.8 0.3,1 -1.1,5.1 -0.3,3.2 0.7,1.8 -0.4,0.9 0.9,0.6 0.6,0.7 0.3,1.4 v 1.5 l 0.2,0.6 0.7,1.2 0.8,4 0.1,1.9 v 0.8 l -0.8,1.1 -0.2,0.6 -0.1,1.2 -0.2,0.7 -0.9,0.5 -0.3,0.3 -0.2,0.8 0.2,1.3 v 0.6 l -0.7,0.6 -1,0.9 -0.6,0.8 0.7,0.3 1.3,0.2 1,0.6 0.9,0.8 0.8,1 0.6,0.9 0.4,1.1 0.4,1.1 0.2,2.3 0.2,0.9 v 1.1 l -0.3,1.4 0.3,0.5 v 0.6 l -0.3,1.5 v 1.5 l -0.2,0.4 -0.7,0.7 -0.2,0.4 0.2,1.7 0.7,1.5 1.6,2.5 0.5,2.6 0.2,1.3 -0.3,1.3 -0.7,1.2 -1.2,1.5 -0.6,1.2 -0.5,2 -0.3,0.7 -1,1.4 -0.3,0.7 -0.3,1.3 0.3,3.3 -0.4,1.1 -1,0.6 -1.3,0.2 h -1.1 l -0.7,0.6 -0.3,1.4 v 2 l 0.3,0.2 0.2,0.6 v 0.7 l -0.8,0.5 0.2,0.6 1.9,2.5 0.1,0.3 -0.2,1.3 0.1,0.5 0.5,0.6 -1.3,1.7 -0.3,0.9 -0.3,2.7 -0.8,2.3 -0.3,1.9 -0.8,1.1 -0.1,0.8 0.3,2.4 -0.2,2.2 -0.4,2.1 -1.6,0.5 -0.3,1.1 -1,1.8 -1.7,1.3 -0.9,1.1 -0.1,1.5 0.2,1.6 -0.2,1.5 -0.5,0.7 -0.6,0.2 -0.7,-0.1 -0.7,0.1 -0.7,0.4 -0.6,1 -2.4,2.7 -1,0.6 -1.3,0.4 -2.8,0.4 -1.3,0.7 -0.7,1.3 0.5,0.1 0.5,0.2 0.3,0.4 0.4,1.5 0.5,0.5 1.3,0.6 0.6,0.5 0.5,0.8 0.8,1.6 3.8,5 0.6,1.2 -12.7,0.7 0.3,1.4 -0.8,0.8 -2.4,1.4 -1.9,1.8 -1.6,2.2 -1.4,2.9 -0.4,2.8 z"
     id="IRN3245"
     name="Razavi Khorasan"
     style="fill:#feb845;fill-opacity:1;stroke:#2e3946;stroke-width:3.914944;stroke-miterlimit:4;stroke-dasharray:none;stroke-opacity:1" /><path
     d="m 60.48524,-233.6792 -6.3,3.9 -1.9,2 v 2.8 l -0.6,2.5 -0.9,2.2 2,1.4 23.2,1.1 1,1.3 0.6,2.2 1.2,2.7 4.7,4.4 1.4,2.9 0.3,2.6 -1.1,2.1 -1.4,1.7 -0.4,1.1 -0.1,1.3 -0.5,2 -1.9,2.6 -3.1,9.2 -2.1,2.6 0.3,2.2 2.5,1.8 1.4,1.6 1,1.8 1.4,-0.2 0.7,-2 0.7,-0.3 0.4,1.7 1.1,1.6 1.7,0.8 0.2,1.5 -3.1,3.3 -0.3,1.8 0.6,1 1.9,1.1 0.4,2 -1.7,5.1 -2,1.8 -3.9,1 -14.3,-2.2 -34.2,-19.1 -8.3,-0.4 -12.4,10.2 -3,3.9 -0.4,3 0.4,2.3 -0.2,1.7 -7.9,1.4 -2.5,-1 -5,-0.9 -2.9,-0.9 -5.8,-5.1 -6.2,-6.9 -0.9,-2 0.2,-1.3 0.9,-3.9 0.3,-4.4 -0.3,-1.7 -0.6,-1.2 0.3,-1 1.3,-1 3,-0.9 0.6,-1.5 -2.5,-1.1 -2.1,0.4 -3.6,-2.6 -7.9,-10.5 1.6,-1.5 3.8,-6.7 3.7,-1.6 1.6,-1.4 1.6,-0.7 1.4,-0.2 6,-2.1 2.9,-4 -1,-4 -2.1,-1.6 -2.4,-1.2 -1.8,-2.1 -0.1,-3 1,-4.2 0.1,-1.6 -0.6,-2.7 -0.2,-2.4 0.4,-1.9 -0.4,-4.6 1.6,0.7 0.9,0.1 4.4,-0.7 0.8,-0.6 0.5,-1.1 0.2,-1.2 -0.2,-1.1 -1.4,-1.7 0.3,-0.9 3.2,-3 1.8,-1.2 1.9,-0.7 4.7,-0.2 0.9,0.2 1.4,1 0.7,0.3 0.8,-0.1 4.1,-1.9 2.5,-0.4 0.5,0.1 2,1.7 1.8,1 0.8,0.2 7.8,1.5 2,0.9 1.1,0.1 0.9,-0.5 0.7,-0.6 1.7,-1.2 0.6,-0.6 1.1,-1.8 0.6,-0.7 0.9,-0.4 h 1.1 l 1.1,0.3 0.6,0.4 0.1,0.9 0.3,0.6 1.2,2 0.9,2.3 0.6,0.9 1.7,1.9 0.6,1.9 1.1,1.6 0.3,1.2 -0.2,1.1 -1,3.4 1.3,1.8 7.4,2.9 0.9,-0.1 0.8,-0.2 0.8,-0.2 0.9,0.1 2.6,0.8 h 2.6 l 0.7,-0.2 h 0.8 l 0.7,0.4 0.7,0.6 z"
     id="IRN3246"
     name="North Khorasan"
     style="fill:#feb845;fill-opacity:1;stroke:#2e3946;stroke-width:3.914944;stroke-miterlimit:4;stroke-dasharray:none;stroke-opacity:1" /><path
     d="m 138.88524,526.7208 -0.3,-1.4 1.4,-0.6 0.2,-1.8 -1,-0.5 -0.4,-0.5 -1.8,-3.1 -0.9,-0.9 -0.7,-0.9 -0.4,-1.2 -0.8,-1 -1.6,-0.6 -1.1,-1.2 -0.3,-2.1 -1.6,-2.7 -9.8,-8.7 -1.9,-1.2 -0.7,-0.3 -0.2,-1 0.3,-1.8 0.9,-1.5 0.6,-0.3 1,-2.5 0.3,-2.2 v -3.5 l 0.6,-1.5 0.7,-0.9 -0.1,-1.9 1,-1.2 0.8,-2.2 -0.4,-2.3 -1.8,-2.1 -0.9,-3.3 1.2,-2.7 1.7,-2 v -2 l -1.7,-1.5 -0.8,-1.3 1.4,-2.5 1.5,-4.4 -2.8,-5.5 -3.9,-4.6 -1.1,-3.9 0.2,-3.7 -0.2,-2.2 -1.2,-4.9 v -5.8 l 5.9,-23.3 0.7,-6.7 -0.4,-20.3 6,-7.8 1.6,-5.3 -1.8,-3 -4.3,-3.2 -1.9,-3 3,-1.6 5.9,-2 12,-7 2.3,-1.9 1.5,-1.6 0.1,-2.2 -0.5,-2.3 -1.5,-3.2 -0.1,-4.8 -0.7,-4 0.7,-3.8 4.3,-6.6 1.6,-5.9 0.2,-5.1 -1.8,-12.6 -2.1,-5.2 -2.3,-1.6 -1.2,-1.2 0.4,-5 10.6,-49.4 1.7,-0.8 38.7,-11 2.9,0.5 1.8,2 1.2,0.9 4.8,1.3 6.3,4.7 8.2,11.6 4.2,3.7 7,-0.3 1.8,-0.7 0.8,-1.2 0.1,-1.9 -2.7,-11.6 -0.2,-4.6 1.1,-15.8 2.5,-8.8 3.3,-8 0.7,-7.3 -0.9,-3.5 18.9,2.8 8.8,1.2 1.3,0.6 1,0.8 1.9,2.3 0.3,1.2 -0.3,2.6 v 1.2 l 0.5,1.2 1.4,2.3 0.4,1.4 0.1,1.7 0.1,0.6 0.9,2 0.6,1.9 0.3,1.2 v 1.2 l -0.4,1.3 -1,2 0.3,0.7 0.2,4.1 -0.5,0.6 v 1.1 l 0.2,0.4 -0.9,0.9 -16.7,20.3 -12.8,15.2 -12.2,14.7 -7,8.1 6.9,8.2 11.4,13.6 4.2,5.1 1,0.8 1.1,0.5 0.9,0.6 0.5,1.5 -0.1,1.2 -0.6,2.1 v 1.1 l 0.5,1.2 1.6,1.8 0.7,1.1 0.1,0.6 0.2,1.5 0.3,0.7 0.5,0.6 1,0.2 0.5,0.3 0.5,0.9 0.3,1 0.4,0.8 0.9,0.4 0.5,0.4 0.1,0.5 -0.1,0.6 -0.9,0.9 v 0.7 l 1.1,0.6 0.5,0.5 0.5,0.6 2.2,5 0.3,1.1 0.1,1 0.3,0.9 1.5,1.7 1.4,3.2 1.5,1.9 5.4,4.9 2.1,2.7 3.3,3.1 1.6,1.9 1,0.5 3.1,0.9 2.5,1.4 1.5,0.5 3.5,0.3 1.6,0.4 4.3,1.9 6.8,1.4 1.5,0.7 0.6,0.7 0.4,0.8 0.5,0.7 0.9,0.5 0.8,0.3 0.6,0.3 0.3,0.6 0.4,1.1 0.7,1.2 3.3,3.6 1,0.6 8.5,-1.7 1.1,0.7 0.3,2.1 -1.6,12.7 2.3,9.6 1,11.2 0.8,8.4 -0.3,2.4 -2.7,6.1 1,1.3 0.2,0.6 -0.1,0.9 -0.2,0.9 -0.3,0.6 -0.5,0.4 -0.8,0.1 2.2,2 0.8,0.4 h 0.4 l 0.7,-0.4 h 0.8 l 1.2,0.7 1.6,0.4 1.4,-0.1 3,-0.6 1.4,-0.2 2.7,-0.9 h 1.4 1.5 l 2.8,-0.9 0.5,0.1 0.7,0.2 1.3,1.2 0.6,0.4 1.3,0.5 0.4,0.3 0.6,0.6 0.7,1.1 1.8,3.9 -0.9,-0.4 h -1.1 l -1,0.5 -0.6,0.9 -0.2,0.6 -0.5,0.8 -0.3,0.6 v 0.6 l 0.2,6.6 0.5,1.1 0.6,0.9 0.5,1 -0.2,1 -0.8,0.7 -2.1,0.4 -0.8,0.4 -0.4,0.9 -0.4,8.4 -0.6,2.4 -1.1,1.1 h -0.5 l -1.3,-0.7 -0.5,-0.1 -1.5,0.4 -2,-0.1 -2,-0.3 -12.3,-0.3 -0.5,0.2 -0.4,0.5 -0.6,1 -1.1,0.6 -1.6,0.4 h -0.5 l -1.1,-0.4 -0.4,0.2 -0.9,0.8 -1,0.4 -8.7,0.9 -0.9,0.5 -0.4,0.7 -0.3,0.3 -0.5,0.1 h -1.1 l -1,0.2 -1,0.7 -1.1,0.5 -0.4,0.2 -0.3,0.5 -0.1,0.5 0.4,1 -0.6,1 -1.6,1.6 -0.3,0.8 0.2,1.3 0.5,1.1 0.1,0.8 -1.1,0.6 -2,-0.3 -2.3,-0.8 -1.9,-0.3 -0.9,1.4 -0.2,1.4 -0.5,0.6 -2.1,0.4 -1.1,0.3 -0.9,0.5 -1.9,1.2 -6.2,1.8 -1.3,1 -0.7,1.5 -0.4,1.8 -0.9,6.6 -1.7,12.4 -0.3,1 -0.8,1 -0.9,0.2 h -1 l -1.1,0.2 -1.1,1.6 0.3,2.1 0.5,2.2 -0.1,2 -1.1,1.2 -0.3,0.6 -0.2,0.8 -1.2,18.8 -1.6,4.7 -0.3,-0.8 -0.1,-0.9 -0.9,-0.7 -0.5,-0.5 -0.5,0.3 -0.1,0.3 -0.1,1 -0.1,0.3 1,1.1 -1.1,-0.1 -0.8,-0.3 h -0.9 l -1.1,0.8 1.3,0.4 0.5,0.3 0.4,0.5 -0.3,0.6 -0.8,1 -0.3,1.1 -0.4,0.4 -0.8,0.4 -2.8,0.9 0.8,0.5 -1.2,1.6 -8.7,-3 -3.1,-0.6 0.1,-1 -0.8,-1.4 -7.2,-2.6 -8.5,-1.4 -7.2,-1.7 -4.9,-0.6 -0.8,-0.5 0.8,-0.7 -1.3,-1.8 -0.1,-0.8 -0.1,-3.2 -0.1,-0.5 -1.9,-1.9 -0.8,-0.5 -0.9,-0.1 -0.9,0.1 -3.6,1.1 -0.9,0.5 -0.5,0.8 -1.2,1.6 0.4,1.9 1.1,0.5 h 0.5 l 1,1.1 h -0.6 l 1.5,0.8 -0.2,0.7 -0.6,-0.1 -3.7,-1.6 -1.1,-0.6 h -2.2 l -1.5,-1.2 0.7,-1.1 -0.8,-0.4 -0.9,-0.1 -1.9,0.1 -1.7,0.4 -0.5,0.5 0.2,0.6 1.1,0.8 -0.4,1 h -1.4 l -1,-0.7 -0.6,-0.2 -1.8,-0.2 -0.4,-0.3 -0.6,-0.8 -0.8,-0.4 -1.9,0.1 -2.6,0.4 -2.8,0.1 -1.9,1.4 -2.2,-0.7 -2.1,-2.1 -2.4,-0.6 -5.9,0.4 h -2.4 l -3.9,-1 -2.5,-2.5 -1.8,-1 -3,0.6 z"
     id="IRN3247"
     name="Sistan and Baluchestan"
     style="fill:#feb845;fill-opacity:1;stroke:#2e3946;stroke-width:3.914944;stroke-miterlimit:4;stroke-dasharray:none;stroke-opacity:1" /><path
     d="m 65.58524,160.9208 58.9,26.7 7.4,5.5 20.6,30.1 -10.6,49.4 -0.4,5 1.2,1.2 2.3,1.6 2.1,5.2 1.8,12.6 -0.2,5.1 -1.6,5.9 -4.3,6.6 -0.7,3.8 0.7,4 0.1,4.8 1.5,3.2 0.5,2.3 -0.1,2.2 -1.5,1.6 -2.3,1.9 -12,7 -5.9,2 -3,1.6 1.9,3 4.3,3.2 1.8,3 -1.6,5.3 -6,7.8 0.4,20.3 -0.7,6.7 -5.9,23.3 v 5.8 l 1.2,4.9 0.2,2.2 -0.2,3.7 1.1,3.9 3.9,4.6 2.8,5.5 -1.5,4.4 -1.4,2.5 0.8,1.3 1.7,1.5 v 2 l -1.7,2 -1.2,2.7 0.9,3.3 1.8,2.1 0.4,2.3 -0.8,2.2 -1,1.2 0.1,1.9 -0.7,0.9 -0.6,1.5 v 3.5 l -0.3,2.2 -1,2.5 -2.1,-3.2 -0.7,-0.6 h -1.5 l -2,-0.8 -1.5,0.4 -1.5,1.6 -2.2,0.3 -2.6,-0.1 -2.1,-0.5 -0.9,-1.6 -0.1,-1.8 -0.6,-1.2 -0.1,-1.2 0.5,-1 0.1,-0.6 -1,-0.7 -3.2,-0.5 -2,-0.9 -1.8,-0.4 -1.8,0.9 -2.8,0.2 -4.2,-0.7 -6.9,0.4 -0.1,-1.1 1.1,-1.3 0.6,-3.2 v -1.7 l -0.3,-1.7 1.2,-11.3 0.7,-1.7 0.9,-1.2 0.3,-1 v -1.4 l -1.3,-3.8 0.1,-1.1 h 1.1 l 3.2,2 0.5,-1.1 -1.5,-3.2 -3.1,-3.5 -3.8,-3.3 -3.6,-2.1 -3.4,-0.1 -2.1,1.4 -1.2,1.8 -2.5,2.3 -1.5,-0.5 -3.5,-2.6 -16,-8.5 -1.1,-3.4 -1.6,-21.7 -1.6,-4.6 -1.4,-2.9 -1.3,-0.7 -1.2,-1.7 0.9,-1.8 1.4,-1.2 -0.3,-2.9 -2.4,-3.6 -2.3,-2.6 -1.2,-2.3 -2.1,-2.7 -2.7,-1.4 -1.6,-0.2 -1,-0.9 -0.7,-1.3 -1.9,-9.1 0.4,-6 -0.4,-0.9 -5.4,-2.7 -2.8,-0.1 -2.3,1.9 -1.6,1.9 -5.6,5.4 -6.1,3 -3.3,0.6 -6.2,-1 -5.3,-3.2 -4.4,-4.1 -4.6,-5.9 -1.1,-5.8 1.3,-4.4 -1,-22.4 -1.5,-2.2 -1.5,0.2 -6.1,2.9 -10.4,7.8 -2.6,0.7 -2.3,-1.1 -2.3,-1.6 -2.2,-3 -4.7,-3.6 -9.3,-2.7 -4.4,-0.3 -10.4,-26 -3.1,-1.3 -11.8,-1.1 -2.3,-1.4 -1.2,-1.3 -1.2,-2 -0.6,-2.3 -4.2,-8.7 -1.4,-4.7 v -1.2 l 2.3,-1 0.5,-0.5 5.3,-0.6 1.6,-1.2 -0.1,-1.7 -0.7,-2.3 -0.5,-3.4 0.6,-19.4 -1.6,-1.2 -1.7,-2 -1.2,-6 -3.1,-8 -2.9,-5.5 -0.1,-3 1.1,-4.4 2.4,-4.5 4.6,-5.1 29,-5.2 6.6,0.3 4.3,0.8 9.7,-1.3 8.8,-3.9 0.8,-4.2 0.6,-19 2.3,-5 27.5,-14.5 3.6,-3.9 10.8,-6.1 2.4,-2.5 1.1,-1.7 6.6,1.1 z"
     id="IRN3248"
     name="Kerman"
     style="fill:#feb845;fill-opacity:1;stroke:#2e3946;stroke-width:3.914944;stroke-miterlimit:4;stroke-dasharray:none;stroke-opacity:1" /><path
     d="m -298.01476,-131.1792 8.6,1.7 3.3,1.3 0.9,1.3 2,1.9 2.1,0.9 8.5,1.9 3.4,3.9 -0.2,2.8 v 3.6 l -2.9,1.8 -4.2,-0.5 -4.2,1.5 -3.1,3.6 -0.2,4.1 -0.6,3.1 -4.6,0.3 -1.5,3.8 -2.7,3.4 -3.3,2 -1.4,3.2 -2.4,0.2 -1.4,3 -1.5,0.2 -0.3,-2.1 v -3.5 l -2,-2.4 h -2.9 l -0.7,1.7 2,2.8 v 1.1 l -0.5,0.9 -1.3,-0.8 -3,-2.7 -5.1,-1.4 -5.2,-0.4 -2.2,-0.5 -1.1,-1.8 -1.4,-3 -0.4,-1.9 0.7,-2.5 2.8,-2.8 10.5,-5.1 1.7,-1.7 0.7,-2.4 2.4,-5.1 1.7,-5.6 -2.4,-2 -3.7,-1.1 -1.9,-1.7 -2.6,-3.6 1.5,-2.3 5.8,-0.4 z"
     id="IRN5490"
     name="Alborz"
     style="fill:#feb845;fill-opacity:1;stroke:#2e3946;stroke-width:3.914944;stroke-miterlimit:4;stroke-dasharray:none;stroke-opacity:1" /><circle
     cx="-311.01477"
     cy="-34.879189"
     id="0"
     r="0"
     style="fill:#feb845;fill-opacity:1;stroke:#2e3946;stroke-width:3.914944;stroke-miterlimit:4;stroke-dasharray:none;stroke-opacity:1" /><circle
     cx="-449.41476"
     cy="20.220787"
     id="1"
     r="0"
     style="fill:#feb845;fill-opacity:1;stroke:#2e3946;stroke-width:3.914944;stroke-miterlimit:4;stroke-dasharray:none;stroke-opacity:1" /><circle
     cx="-314.61475"
     cy="184.22079"
     id="2"
     r="0"
     style="fill:#feb845;fill-opacity:1;stroke:#2e3946;stroke-width:3.914944;stroke-miterlimit:4;stroke-dasharray:none;stroke-opacity:1" /></g><text
   xml:space="preserve"
   style="font-style:normal;font-weight:normal;font-size:80px;line-height:1.25;font-family:sans-serif;fill:#2e3946;fill-opacity:1;stroke:#2e3946;stroke-opacity:1"
   x="352.09882"
   y="499.96524"
   id="text2774"
   transform="rotate(30)"><tspan
     sodipodi:role="line"
     id="tspan2772"
     x="352.09882"
     y="499.96524"
     style="font-style:normal;font-variant:normal;font-weight:bold;font-stretch:normal;font-size:80px;font-family:sans-serif;-inkscape-font-specification:'sans-serif Bold';fill:#2e3946;fill-opacity:1;stroke:#2e3946;stroke-opacity:1">IRMaps</tspan></text></svg>
